<?xml version="1.0" encoding="UTF-8" standalone="no"?>
<svg
   xmlns:dc="http://purl.org/dc/elements/1.1/"
   xmlns:cc="http://creativecommons.org/ns#"
   xmlns:rdf="http://www.w3.org/1999/02/22-rdf-syntax-ns#"
   xmlns:svg="http://www.w3.org/2000/svg"
   xmlns="http://www.w3.org/2000/svg"
   xmlns:sodipodi="http://sodipodi.sourceforge.net/DTD/sodipodi-0.dtd"
   xmlns:inkscape="http://www.inkscape.org/namespaces/inkscape"
   width="100mm"
   height="80mm"
   viewBox="0 0 100 80"
   version="1.1"
   id="svg8"
   inkscape:version="1.0.1 (3bc2e813f5, 2020-09-07, custom)"
   sodipodi:docname="team1_axe.svg"
   inkscape:export-filename="/home/sven/data/game_programming/magic_mates/gfx/2_axe.png"
   inkscape:export-xdpi="88"
   inkscape:export-ydpi="88">
  <defs
     id="defs2" />
  <sodipodi:namedview
     id="base"
     pagecolor="#ffffff"
     bordercolor="#666666"
     borderopacity="1.0"
     inkscape:pageopacity="0.0"
     inkscape:pageshadow="2"
     inkscape:zoom="0.7"
     inkscape:cx="210.74973"
     inkscape:cy="17.236769"
     inkscape:document-units="mm"
     inkscape:current-layer="layer1"
     inkscape:document-rotation="0"
     showgrid="false"
     inkscape:window-width="1920"
     inkscape:window-height="1028"
     inkscape:window-x="0"
     inkscape:window-y="0"
     inkscape:window-maximized="1"
     inkscape:snap-global="false" />
  <metadata
     id="metadata5">
    <rdf:RDF>
      <cc:Work
         rdf:about="">
        <dc:format>image/svg+xml</dc:format>
        <dc:type
           rdf:resource="http://purl.org/dc/dcmitype/StillImage" />
        <dc:title></dc:title>
      </cc:Work>
    </rdf:RDF>
  </metadata>
  <g
     inkscape:label="Layer 1"
     inkscape:groupmode="layer"
     id="layer1">
    <rect
       style="fill:#dcdcdc;fill-opacity:1;stroke:#282828;stroke-width:0.999991;stroke-linecap:round;stroke-miterlimit:4;stroke-dasharray:none;stroke-opacity:1"
       id="rect10"
       width="99.000008"
       height="79.000008"
       x="132.53487"
       y="-113.28494"
       inkscape:export-filename="/home/sven/data/game_programming/magic_mates/gfx/1_axe.png"
       inkscape:export-xdpi="88"
       inkscape:export-ydpi="88" />
    <path
       id="path905-6-7"
       style="fill:#dcdcdc;fill-opacity:1;stroke:#282828;stroke-width:1.5;stroke-linecap:butt;stroke-linejoin:miter;stroke-miterlimit:4;stroke-dasharray:none;stroke-opacity:1"
       d="m 181.44984,-66.76415 c -3.16823,5.90356 -7.52186,11.382512 -8.83519,18.100401 0.63234,6.509602 9.3036,2.150348 7.95246,-2.852033 1.05826,-5.718821 10.54609,-12.782693 4.95508,-17.921705 -1.86637,-0.742274 -4.10849,0.615212 -4.07235,2.673337 z"
       inkscape:export-filename="/home/sven/data/game_programming/magic_mates/gfx/1_axe.png"
       inkscape:export-xdpi="88"
       inkscape:export-ydpi="88" />
    <path
       id="path905-6"
       style="fill:#dcdcdc;fill-opacity:1;stroke:#282828;stroke-width:1.5;stroke-linecap:butt;stroke-linejoin:miter;stroke-miterlimit:4;stroke-dasharray:none;stroke-opacity:1"
       d="m 217.43298,-71.161407 c 4.46693,4.993621 9.98627,9.295937 12.84163,15.517014 0.91524,6.475888 -8.53765,4.276621 -8.4,-0.90319 -2.37264,-5.309935 -13.25486,-9.946154 -9.0282,-16.255212 1.63965,-1.160113 4.138,-0.367585 4.58657,1.641388 z"
       inkscape:export-filename="/home/sven/data/game_programming/magic_mates/gfx/1_axe.png"
       inkscape:export-xdpi="88"
       inkscape:export-ydpi="88" />
    <path
       id="path987"
       style="fill:#dcdcdc;fill-opacity:1;stroke:#000000;stroke-width:1.5;stroke-linecap:butt;stroke-linejoin:miter;stroke-miterlimit:4;stroke-dasharray:none;stroke-opacity:1"
       d="m 181.33138,62.202152 c 0.19181,6.528917 0.91585,29.289018 4.37715,28.049278 -0.60291,-3.25048 0.19157,-20.778398 -4.37717,-28.04928 z"
       sodipodi:nodetypes="cccc" />
    <path
       id="path975"
       style="fill:#dcdcdc;fill-opacity:1;stroke:#000000;stroke-width:1.5;stroke-linecap:butt;stroke-linejoin:miter;stroke-miterlimit:4;stroke-dasharray:none;stroke-opacity:1"
       d="m 215.74633,84.44805 c -3.85293,2.43877 -8.43517,4.18452 -12.84722,5.92034 -4.81114,1.57029 -9.72384,-0.71742 -13.73988,-2.95358 -2.20983,-1.93341 -5.62002,-2.15742 -7.18189,0.56627 -0.90883,3.04171 2.98528,5.0686 5.48738,6.3481 4.17372,1.7796 12.172,4.89393 16.7941,5.30612 5.84444,-0.78462 22.11465,-7.08546 26.63236,-12.79277 1.40754,-2.24245 -0.12011,-4.802281 -2.41465,-5.968111 -4.70469,-1.54625 -8.96168,0.4968 -12.7302,3.573631 z"
       sodipodi:nodetypes="ccccccccc" />
    <path
       id="path1100"
       style="fill:#dcdcdc;fill-opacity:1;stroke:#000000;stroke-width:1.5;stroke-linecap:butt;stroke-linejoin:miter;stroke-miterlimit:4;stroke-dasharray:none;stroke-opacity:1"
       d="m 220.35385,107.9969 c -9.11135,-13.20229 -4.81592,-28.254031 8.60809,-30.530475 31.4982,-5.532049 31.43275,0.458889 27.94114,26.232125 -6.90232,8.14029 -26.12779,7.96985 -36.54923,4.29835 z"
       sodipodi:nodetypes="cccc" />
    <path
       id="path1084"
       style="fill:#dcdcdc;fill-opacity:1;stroke:#000000;stroke-width:1.5;stroke-linecap:butt;stroke-linejoin:miter;stroke-miterlimit:4;stroke-dasharray:none;stroke-opacity:1"
       d="m 229.16394,70.449517 c 1.16836,2.893598 -1.17255,6.330231 1.15182,8.929428 2.8943,2.299527 6.64256,-1.173966 6.7188,-3.930257 0.95896,-3.080435 -1.58316,-6.561468 -5.47483,-5.967965 -0.88454,0.07607 -1.80492,0.353195 -2.39579,0.968794 z" />
    <path
       id="path892"
       style="fill:#dcdcdc;fill-opacity:1;stroke:#000000;stroke-width:1.5;stroke-linecap:butt;stroke-linejoin:miter;stroke-miterlimit:4;stroke-dasharray:none;stroke-opacity:1"
       d="m 246.60328,50.46983 c -4.14659,-9.832035 -16.47138,-10.42032 -22.65571,-3.078457 -4.17298,4.433656 -4.898,12.032367 -2.35664,17.806804 2.36803,6.360005 8.51528,10.146169 14.23973,8.463207 7.35828,-1.559091 14.06725,-9.741193 13.45069,-18.957448 -0.35072,-1.774208 -1.38208,-3.296029 -2.67807,-4.234106 z" />
    <path
       id="path855"
       style="fill:#dcdcdc;fill-opacity:1;stroke:#000000;stroke-width:1.5;stroke-linecap:butt;stroke-linejoin:miter;stroke-miterlimit:4;stroke-dasharray:none;stroke-opacity:1"
       d="m 208.65072,45.631692 c 5.1279,10.26161 40.98828,13.702908 55.76258,1.222814 -6.86908,-14.640435 -51.41601,-11.048674 -55.76258,-1.222814 z"
       sodipodi:nodetypes="ccc" />
    <path
       id="path880"
       style="fill:#dcdcdc;fill-opacity:1;stroke:#000000;stroke-width:1.5;stroke-linecap:butt;stroke-linejoin:miter;stroke-miterlimit:4;stroke-dasharray:none;stroke-opacity:1"
       d="m 224.80806,44.448771 c 6.68634,5.056388 18.23683,4.140955 23.17206,-0.58801 -1.30802,-9.493784 7.34912,-18.069296 6.73619,-22.562769 -19.00338,-1.470195 -25.32644,13.02425 -29.90825,23.150779 z"
       sodipodi:nodetypes="cccc" />
    <path
       id="path914"
       style="fill:none;stroke:#000000;stroke-width:1.5;stroke-linecap:butt;stroke-linejoin:miter;stroke-miterlimit:4;stroke-dasharray:none;stroke-opacity:1"
       d="m 223.40167,57.161418 c 0.86557,1.752547 4.64556,2.265628 5.02391,0.616506 0.11364,-1.253377 -3.53585,-0.940417 -5.02391,-0.616506 z"
       sodipodi:nodetypes="ccc" />
    <path
       id="path914-3"
       style="fill:none;stroke:#000000;stroke-width:1.5;stroke-linecap:butt;stroke-linejoin:miter;stroke-miterlimit:4;stroke-dasharray:none;stroke-opacity:1"
       d="m 237.62126,60.353531 c -0.86557,-1.752547 -4.64558,-2.265628 -5.0239,-0.616507 -0.11364,1.253377 3.53582,0.940418 5.0239,0.616507 z"
       sodipodi:nodetypes="ccc" />
    <path
       id="path951"
       style="fill:none;stroke:#000000;stroke-width:1.5;stroke-linecap:butt;stroke-linejoin:miter;stroke-miterlimit:4;stroke-dasharray:none;stroke-opacity:1"
       d="m 226.06368,65.82332 c 2.18293,2.538546 4.83389,6.233873 8.17587,2.812513 -3.48242,-1.434144 -4.59544,-2.580752 -8.17587,-2.812513 z"
       sodipodi:nodetypes="ccc" />
    <path
       style="fill:#dcdcdc;fill-opacity:1;stroke:#000000;stroke-width:1.5;stroke-linecap:round;stroke-miterlimit:4;stroke-dasharray:none;stroke-opacity:1"
       id="path973"
       sodipodi:type="arc"
       sodipodi:cx="240.82607"
       sodipodi:cy="101.99244"
       sodipodi:rx="25.278786"
       sodipodi:ry="21.572359"
       sodipodi:start="4.6021889"
       sodipodi:end="4.5774925"
       sodipodi:open="true"
       sodipodi:arc-type="arc"
       d="m 238.04598,80.550936 a 25.278786,21.572359 0 0 1 27.88789,18.9367 25.278786,21.572359 0 0 1 -22.01768,23.915374 25.278786,21.572359 0 0 1 -28.15977,-18.64139 25.278786,21.572359 0 0 1 21.66996,-24.145561" />
    <path
       sodipodi:type="star"
       style="fill:#dcdcdc;fill-opacity:1;stroke:#000000;stroke-width:0.638986;stroke-linecap:round;stroke-miterlimit:4;stroke-dasharray:none;stroke-opacity:1"
       id="path1006"
       sodipodi:sides="5"
       sodipodi:cx="123.5696"
       sodipodi:cy="54.443485"
       sodipodi:r1="1.0402492"
       sodipodi:r2="0.52012455"
       sodipodi:arg1="0.91178357"
       sodipodi:arg2="1.5401021"
       inkscape:flatsided="false"
       inkscape:rounded="0"
       inkscape:randomized="0"
       d="m 124.20659,55.265903 -0.62102,-0.302538 -0.60129,0.340068 0.0958,-0.684115 -0.50923,-0.466774 0.68024,-0.120268 0.28657,-0.62855 0.32459,0.609785 0.68634,0.07831 -0.47964,0.497136 z"
       inkscape:transform-center-x="0.023166087"
       inkscape:transform-center-y="-0.21102765"
       transform="matrix(2.3477747,0,0,2.3471661,-97.174584,-86.285782)" />
    <path
       sodipodi:type="star"
       style="fill:#dcdcdc;fill-opacity:1;stroke:#000000;stroke-width:0.638986;stroke-linecap:round;stroke-miterlimit:4;stroke-dasharray:none;stroke-opacity:1"
       id="path1008"
       sodipodi:sides="5"
       sodipodi:cx="125.65245"
       sodipodi:cy="44.54113"
       sodipodi:r1="1.2092404"
       sodipodi:r2="0.6046201"
       sodipodi:arg1="1.1471095"
       sodipodi:arg2="1.7754281"
       inkscape:flatsided="false"
       inkscape:rounded="0"
       inkscape:randomized="0"
       d="m 126.1496,45.643449 -0.62001,-0.510314 -0.77188,0.221446 0.29374,-0.747361 -0.44913,-0.665668 0.80156,0.04842 0.4943,-0.632852 0.20164,0.777286 0.75463,0.274545 -0.67694,0.431969 z"
       inkscape:transform-center-x="0.15024075"
       inkscape:transform-center-y="0.12418932"
       transform="matrix(1.9432773,1.3171255,-1.3174669,1.9427736,-4.0257475,-206.55637)" />
    <path
       sodipodi:type="star"
       style="fill:#dcdcdc;fill-opacity:1;stroke:#000000;stroke-width:0.638986;stroke-linecap:round;stroke-miterlimit:4;stroke-dasharray:none;stroke-opacity:1"
       id="path1010"
       sodipodi:sides="5"
       sodipodi:cx="122.31255"
       sodipodi:cy="58.28735"
       sodipodi:r1="1.1403736"
       sodipodi:r2="0.57018679"
       sodipodi:arg1="0.38234055"
       sodipodi:arg2="1.0106591"
       inkscape:flatsided="false"
       inkscape:rounded="0"
       inkscape:randomized="0"
       d="m 123.37059,58.712815 -0.75509,0.05759 -0.38064,0.654672 -0.2881,-0.700338 -0.74025,-0.1597 0.57703,-0.490419 -0.0769,-0.753372 0.64473,0.397243 0.69274,-0.30591 -0.17856,0.735928 z"
       inkscape:transform-center-x="0.056370469"
       inkscape:transform-center-y="0.20140595"
       transform="matrix(2.3477747,0,0,2.3471661,-99.064484,-84.968712)" />
    <path
       style="fill:#dcdcdc;fill-opacity:1;stroke:#000000;stroke-width:1.5;stroke-linecap:round;stroke-miterlimit:4;stroke-dasharray:none;stroke-opacity:1"
       id="path973-6"
       sodipodi:type="arc"
       sodipodi:cx="241.2296"
       sodipodi:cy="102.83456"
       sodipodi:rx="12.48622"
       sodipodi:ry="10.524102"
       sodipodi:start="4.6021889"
       sodipodi:end="4.5774925"
       sodipodi:open="true"
       sodipodi:arc-type="arc"
       d="m 239.8564,92.374292 a 12.48622,10.524102 0 0 1 13.77496,9.238298 12.48622,10.524102 0 0 1 -10.87542,11.66714 12.48622,10.524102 0 0 1 -13.90926,-9.09422 12.48622,10.524102 0 0 1 10.70368,-11.779447" />
    <path
       sodipodi:type="star"
       style="fill:#dcdcdc;fill-opacity:1;stroke:#000000;stroke-width:0.638986;stroke-linecap:round;stroke-miterlimit:4;stroke-dasharray:none;stroke-opacity:1"
       id="path1010-6"
       sodipodi:sides="5"
       sodipodi:cx="122.31255"
       sodipodi:cy="58.28735"
       sodipodi:r1="1.1403736"
       sodipodi:r2="0.57018679"
       sodipodi:arg1="0.38234055"
       sodipodi:arg2="1.0106591"
       inkscape:flatsided="false"
       inkscape:rounded="0"
       inkscape:randomized="0"
       d="m 123.37059,58.712815 -0.75509,0.05759 -0.38064,0.654672 -0.2881,-0.700338 -0.74025,-0.1597 0.57703,-0.490419 -0.0769,-0.753372 0.64473,0.397243 0.69274,-0.30591 -0.17856,0.735928 z"
       inkscape:transform-center-x="0.056370469"
       inkscape:transform-center-y="0.20140595"
       transform="matrix(2.3477747,0,0,2.3471661,-105.7434,-76.832135)" />
    <path
       sodipodi:type="star"
       style="fill:#dcdcdc;fill-opacity:1;stroke:#000000;stroke-width:0.638986;stroke-linecap:round;stroke-miterlimit:4;stroke-dasharray:none;stroke-opacity:1"
       id="path1010-2"
       sodipodi:sides="5"
       sodipodi:cx="122.31255"
       sodipodi:cy="58.28735"
       sodipodi:r1="1.1403736"
       sodipodi:r2="0.57018679"
       sodipodi:arg1="0.38234055"
       sodipodi:arg2="1.0106591"
       inkscape:flatsided="false"
       inkscape:rounded="0"
       inkscape:randomized="0"
       d="m 123.37059,58.712815 -0.75509,0.05759 -0.38064,0.654672 -0.2881,-0.700338 -0.74025,-0.1597 0.57703,-0.490419 -0.0769,-0.753372 0.64473,0.397243 0.69274,-0.30591 -0.17856,0.735928 z"
       inkscape:transform-center-x="0.056370469"
       inkscape:transform-center-y="0.20140595"
       transform="matrix(2.3477747,0,0,2.3471661,-94.518464,-110.19169)" />
    <path
       id="path876"
       style="fill:#dcdcdc;fill-opacity:1;stroke:#282828;stroke-width:1.5;stroke-linecap:butt;stroke-linejoin:miter;stroke-miterlimit:4;stroke-dasharray:none;stroke-opacity:1"
       d="m 186.77532,-68.954243 c 5.09997,-9.526029 22.94349,-10.370441 30.36968,-0.435194 -7.42011,8.14929 -23.52928,8.406407 -30.36968,0.435194 z"
       sodipodi:nodetypes="ccc"
       inkscape:export-filename="/home/sven/data/game_programming/magic_mates/gfx/1_axe.png"
       inkscape:export-xdpi="88"
       inkscape:export-ydpi="88" />
    <path
       id="path31-3-3"
       style="fill:#dcdcdc;fill-opacity:1;stroke:#282828;stroke-width:1.562;stroke-linecap:butt;stroke-linejoin:miter;stroke-miterlimit:4;stroke-dasharray:none;stroke-opacity:1"
       d="m 195.66724,-98.124574 c 2.71725,-1.05718 3.66952,1.28315 4.63535,1.99011 1.37893,-3.42681 3.10111,-2.5215 4.37162,-2.94551 0.99789,-0.0393 3.37235,-0.74549 5.33846,-4.093896 0.8253,4.048406 -1.41654,6.657206 -1.42385,7.691556 0.2794,6.2271 1.0466,13.41396 -0.33552,15.74603 -0.54253,1.6032 -10.77529,1.54645 -14.82865,1.6246 -1.60383,0.0308 -1.76405,-13.83276 -1.5171,-16.19048 0.1996,-1.18712 -4.55435,-3.67601 -2.56871,-7.884936 2.01207,1.94748 4.12135,4.634326 6.3284,4.062526 z"
       sodipodi:nodetypes="cccccccccc"
       inkscape:export-filename="/home/sven/data/game_programming/magic_mates/gfx/1_axe.png"
       inkscape:export-xdpi="88"
       inkscape:export-ydpi="88" />
    <path
       id="path43"
       style="fill:#dcdcdc;fill-opacity:1;stroke:#282828;stroke-width:1.5;stroke-linecap:butt;stroke-linejoin:miter;stroke-miterlimit:4;stroke-dasharray:none;stroke-opacity:1"
       d="m 193.15232,-95.107219 c 1.70847,-5.028501 13.92085,-5.327041 14.97598,-1.533106 1.51252,6.055239 1.97938,19.239768 -0.98177,21.375883 -2.08599,1.738538 -10.91337,1.578995 -14.80452,0.467562 -4.05748,-2.405616 -0.4733,-17.426773 0.81031,-20.310339 z"
       sodipodi:nodetypes="ccccc"
       inkscape:export-filename="/home/sven/data/game_programming/magic_mates/gfx/1_axe.png"
       inkscape:export-xdpi="88"
       inkscape:export-ydpi="88" />
    <path
       id="path43-3"
       style="fill:#dcdcdc;fill-opacity:1;stroke:#282828;stroke-width:1.5;stroke-linecap:butt;stroke-linejoin:miter;stroke-miterlimit:4;stroke-dasharray:none;stroke-opacity:1"
       d="m 205.81154,-84.344135 c -1.57546,1.613178 -12.83697,1.708952 -13.80994,0.491831 -1.39475,-1.942564 -1.82525,-6.172257 0.90533,-6.857537 1.92358,-0.557735 10.06364,-0.506553 13.65183,-0.149997 3.74156,0.771739 0.43645,5.590634 -0.74722,6.515703 z"
       sodipodi:nodetypes="ccccc"
       inkscape:export-filename="/home/sven/data/game_programming/magic_mates/gfx/1_axe.png"
       inkscape:export-xdpi="88"
       inkscape:export-ydpi="88" />
    <path
       id="path43-3-6"
       style="fill:#dcdcdc;fill-opacity:1;stroke:#282828;stroke-width:1.5;stroke-linecap:butt;stroke-linejoin:miter;stroke-miterlimit:4;stroke-dasharray:none;stroke-opacity:1"
       d="m 202.68075,-87.285099 c -1.11571,0.14721 -9.09095,0.155951 -9.78001,0.04488 -0.98774,-0.177269 -1.29261,-0.563249 0.64115,-0.625784 1.36225,-0.05089 7.12693,-0.04623 9.66803,-0.01369 2.64972,0.07043 0.30909,0.510175 -0.52917,0.594592 z"
       sodipodi:nodetypes="ccccc"
       inkscape:export-filename="/home/sven/data/game_programming/magic_mates/gfx/1_axe.png"
       inkscape:export-xdpi="88"
       inkscape:export-ydpi="88" />
    <path
       id="path31-3"
       style="fill:#dcdcdc;fill-opacity:1;stroke:#282828;stroke-width:1.5;stroke-linecap:butt;stroke-linejoin:miter;stroke-miterlimit:4;stroke-dasharray:none;stroke-opacity:1"
       d="m 192.01342,-71.429396 c 5.34562,-2.079768 7.21901,2.524332 9.11908,3.915106 2.71275,-6.741504 6.10076,-4.960484 8.60023,-5.79466 1.96314,-0.07733 6.63438,-1.466596 10.50229,-8.05387 1.62359,7.964377 -2.78675,13.09665 -2.80113,15.131515 0.54967,12.250497 2.05895,26.3891 -0.66007,30.976951 -1.0673,3.154008 -21.19809,3.042315 -29.1722,3.196069 -3.1552,0.0605 -3.47041,-27.213021 -2.98458,-31.851343 0.39267,-2.335382 -8.95971,-7.23173 -5.05339,-15.511926 3.95832,3.831242 8.10787,9.117068 12.44977,7.992158 z"
       sodipodi:nodetypes="cccccccccc"
       inkscape:export-filename="/home/sven/data/game_programming/magic_mates/gfx/1_axe.png"
       inkscape:export-xdpi="88"
       inkscape:export-ydpi="88" />
    <path
       id="path896"
       style="fill:#dcdcdc;fill-opacity:1;stroke:#282828;stroke-width:1.5;stroke-linecap:butt;stroke-linejoin:miter;stroke-miterlimit:4;stroke-dasharray:none;stroke-opacity:1"
       d="m 201.42647,-62.667036 c 3.35739,-3.948841 1.76594,-7.997722 10.20632,-7.746153 -0.154,7.367296 -5.27959,13.137936 -10.01785,17.144484 -5.73968,-4.743773 -8.0683,-8.094753 -10.99686,-14.831928 4.3564,-2.274648 7.47789,1.089737 10.80839,5.433597 z"
       sodipodi:nodetypes="ccccc"
       inkscape:export-filename="/home/sven/data/game_programming/magic_mates/gfx/1_axe.png"
       inkscape:export-xdpi="88"
       inkscape:export-ydpi="88" />
    <path
       id="path913"
       style="fill:#dcdcdc;fill-opacity:1;stroke:#282828;stroke-width:1.5;stroke-linecap:butt;stroke-linejoin:miter;stroke-miterlimit:4;stroke-dasharray:none;stroke-opacity:1"
       d="m 134.11232,-76.665885 c 1.54551,9.002619 20.6591,18.63864 32.66537,14.718456 -9.5023,-6.13061 -7.57085,-19.884768 -10.75621,-21.882843 -3.78351,-1.617043 -8.27344,11.852238 -21.90916,7.164387 z"
       sodipodi:nodetypes="cccc"
       inkscape:export-filename="/home/sven/data/game_programming/magic_mates/gfx/1_axe.png"
       inkscape:export-xdpi="88"
       inkscape:export-ydpi="88" />
    <path
       id="path913-7"
       style="fill:none;fill-opacity:1;stroke:#282828;stroke-width:1.5;stroke-linecap:butt;stroke-linejoin:miter;stroke-miterlimit:4;stroke-dasharray:none;stroke-opacity:1"
       d="m 173.70659,-77.151184 c -1.54551,-9.002625 -20.65913,-18.638649 -32.66536,-14.718455 9.50228,6.130603 7.57082,19.884767 10.75619,21.882835 3.78351,1.617036 8.27343,-11.852222 21.90917,-7.16438 z"
       sodipodi:nodetypes="cccc"
       inkscape:export-filename="/home/sven/data/game_programming/magic_mates/gfx/1_axe.png"
       inkscape:export-xdpi="88"
       inkscape:export-ydpi="88" />
    <path
       id="path903"
       style="fill:#dcdcdc;fill-opacity:1;stroke:#282828;stroke-width:1.5;stroke-linecap:butt;stroke-linejoin:miter;stroke-miterlimit:4;stroke-dasharray:none;stroke-opacity:1"
       d="m 138.0947,-83.993642 c 2.68785,-2.351134 92.64261,43.802824 91.59948,46.371255 -1.45588,2.057145 -92.81106,-44.212869 -91.59948,-46.371255 z"
       sodipodi:nodetypes="ccc"
       inkscape:export-filename="/home/sven/data/game_programming/magic_mates/gfx/1_axe.png"
       inkscape:export-xdpi="88"
       inkscape:export-ydpi="88" />
    <path
       id="path905"
       style="fill:#dcdcdc;fill-opacity:1;stroke:#282828;stroke-width:1.5;stroke-linecap:butt;stroke-linejoin:miter;stroke-miterlimit:4;stroke-dasharray:none;stroke-opacity:1"
       d="m 227.71845,-51.165113 c -5.00433,3.806876 -9.44032,8.649783 -15.4729,10.857607 -6.12642,0.373826 -3.36484,-8.305622 1.47067,-7.791003 5.14423,-1.824096 10.29208,-11.659157 15.87941,-7.235117 0.96316,1.620322 0.0356,3.898522 -1.87718,4.168513 z"
       inkscape:export-filename="/home/sven/data/game_programming/magic_mates/gfx/1_axe.png"
       inkscape:export-xdpi="88"
       inkscape:export-ydpi="88" />
    <path
       id="path905-5"
       style="fill:#dcdcdc;fill-opacity:1;stroke:#282828;stroke-width:1.53124;stroke-linecap:butt;stroke-linejoin:miter;stroke-miterlimit:4;stroke-dasharray:none;stroke-opacity:1"
       d="m 173.64926,-49.148076 c -2.1938,-6.155019 -5.54046,-12.054035 -5.91138,-18.755276 1.40724,-6.24177 8.89919,-0.860332 7.01541,3.82194 0.26034,5.696749 8.16854,13.814119 2.33552,18.069002 -1.82441,0.474701 -3.73256,-1.140579 -3.43955,-3.135666 z"
       inkscape:export-filename="/home/sven/data/game_programming/magic_mates/gfx/1_axe.png"
       inkscape:export-xdpi="88"
       inkscape:export-ydpi="88" />
    <rect
       style="fill:#282828;fill-opacity:1;stroke:#dcdcdc;stroke-width:0.99999;stroke-linecap:round;stroke-miterlimit:4;stroke-dasharray:none;stroke-opacity:1"
       id="rect10-3"
       width="99.000008"
       height="79.000008"
       x="0.49999499"
       y="0.49999499"
       inkscape:export-filename="/home/sven/data/game_programming/magic_mates/gfx/1_axe.png"
       inkscape:export-xdpi="88"
       inkscape:export-ydpi="88" />
    <path
       id="path905-6-7-6"
       style="fill:#282828;fill-opacity:1;stroke:#dcdcdc;stroke-width:1.5;stroke-linecap:butt;stroke-linejoin:miter;stroke-miterlimit:4;stroke-dasharray:none;stroke-opacity:1"
       d="m 49.41497,47.020798 c -3.168232,5.903561 -7.521861,11.382513 -8.835192,18.1004 0.632341,6.509602 9.303599,2.150348 7.95246,-2.852031 1.058262,-5.718823 10.54609,-12.782696 4.955079,-17.921706 -1.866368,-0.742275 -4.108489,0.615212 -4.072347,2.673337 z"
       inkscape:export-filename="/home/sven/data/game_programming/magic_mates/gfx/1_axe.png"
       inkscape:export-xdpi="88"
       inkscape:export-ydpi="88" />
    <path
       id="path905-6-75"
       style="fill:#282828;fill-opacity:1;stroke:#dcdcdc;stroke-width:1.5;stroke-linecap:butt;stroke-linejoin:miter;stroke-miterlimit:4;stroke-dasharray:none;stroke-opacity:1"
       d="m 85.398105,42.62354 c 4.466927,4.993621 9.986267,9.295937 12.841627,15.517016 0.91524,6.475886 -8.53765,4.276619 -8.4,-0.903193 -2.372636,-5.309933 -13.254856,-9.946153 -9.028195,-16.255211 1.639649,-1.160113 4.137998,-0.367586 4.586568,1.641388 z"
       inkscape:export-filename="/home/sven/data/game_programming/magic_mates/gfx/1_axe.png"
       inkscape:export-xdpi="88"
       inkscape:export-ydpi="88" />
    <path
       id="path876-3"
       style="fill:#282828;fill-opacity:1;stroke:#dcdcdc;stroke-width:1.5;stroke-linecap:butt;stroke-linejoin:miter;stroke-miterlimit:4;stroke-dasharray:none;stroke-opacity:1"
       d="M 54.740448,44.830704 C 59.840418,35.304675 77.683939,34.460263 85.110129,44.39551 77.69002,52.544801 61.580847,52.801918 54.740448,44.830704 Z"
       sodipodi:nodetypes="ccc"
       inkscape:export-filename="/home/sven/data/game_programming/magic_mates/gfx/1_axe.png"
       inkscape:export-xdpi="88"
       inkscape:export-ydpi="88" />
    <path
       id="path31-3-3-5"
       style="fill:#282828;fill-opacity:1;stroke:#dcdcdc;stroke-width:1.562;stroke-linecap:butt;stroke-linejoin:miter;stroke-miterlimit:4;stroke-dasharray:none;stroke-opacity:1"
       d="m 63.63236,15.660371 c 2.717253,-1.05718 3.669525,1.28315 4.635358,1.99011 1.378929,-3.42681 3.101101,-2.5215 4.371615,-2.94551 0.997894,-0.0393 3.372352,-0.74549 5.338458,-4.0939 0.825299,4.04841 -1.416537,6.65721 -1.423847,7.69156 0.279405,6.227102 1.046596,13.413963 -0.335524,15.746033 -0.542523,1.6032 -10.775288,1.54645 -14.828641,1.6246 -1.60383,0.0308 -1.764057,-13.832763 -1.517103,-16.190483 0.199599,-1.18712 -4.554347,-3.67601 -2.56871,-7.88494 2.012069,1.94748 4.121343,4.63433 6.328394,4.06253 z"
       sodipodi:nodetypes="cccccccccc"
       inkscape:export-filename="/home/sven/data/game_programming/magic_mates/gfx/1_axe.png"
       inkscape:export-xdpi="88"
       inkscape:export-ydpi="88" />
    <path
       id="path43-6"
       style="fill:#282828;fill-opacity:1;stroke:#dcdcdc;stroke-width:1.5;stroke-linecap:butt;stroke-linejoin:miter;stroke-miterlimit:4;stroke-dasharray:none;stroke-opacity:1"
       d="m 61.117448,18.677731 c 1.70847,-5.0285 13.920851,-5.32704 14.97598,-1.53311 1.51252,6.05524 1.97938,19.239768 -0.98177,21.375885 -2.085989,1.738537 -10.91337,1.578993 -14.80452,0.467561 -4.057481,-2.405616 -0.4733,-17.426776 0.81031,-20.310336 z"
       sodipodi:nodetypes="ccccc"
       inkscape:export-filename="/home/sven/data/game_programming/magic_mates/gfx/1_axe.png"
       inkscape:export-xdpi="88"
       inkscape:export-ydpi="88" />
    <path
       id="path43-3-2"
       style="fill:#282828;fill-opacity:1;stroke:#dcdcdc;stroke-width:1.5;stroke-linecap:butt;stroke-linejoin:miter;stroke-miterlimit:4;stroke-dasharray:none;stroke-opacity:1"
       d="m 73.776668,29.440813 c -1.575459,1.613177 -12.836969,1.708951 -13.80994,0.491831 -1.394749,-1.942566 -1.82525,-6.172258 0.90533,-6.857543 1.923581,-0.55773 10.063641,-0.50655 13.65183,-0.14999 3.741561,0.771737 0.436452,5.590634 -0.74722,6.515702 z"
       sodipodi:nodetypes="ccccc"
       inkscape:export-filename="/home/sven/data/game_programming/magic_mates/gfx/1_axe.png"
       inkscape:export-xdpi="88"
       inkscape:export-ydpi="88" />
    <path
       id="path43-3-6-9"
       style="fill:#282828;fill-opacity:1;stroke:#dcdcdc;stroke-width:1.5;stroke-linecap:butt;stroke-linejoin:miter;stroke-miterlimit:4;stroke-dasharray:none;stroke-opacity:1"
       d="m 70.64588,26.499847 c -1.115711,0.147212 -9.090951,0.155954 -9.780011,0.04488 -0.98774,-0.177269 -1.292611,-0.563249 0.641149,-0.625784 1.36225,-0.05089 7.126931,-0.04623 9.668031,-0.01369 2.64972,0.07043 0.309089,0.510175 -0.529169,0.594592 z"
       sodipodi:nodetypes="ccccc"
       inkscape:export-filename="/home/sven/data/game_programming/magic_mates/gfx/1_axe.png"
       inkscape:export-xdpi="88"
       inkscape:export-ydpi="88" />
    <path
       id="path31-3-1"
       style="fill:#282828;fill-opacity:1;stroke:#dcdcdc;stroke-width:1.5;stroke-linecap:butt;stroke-linejoin:miter;stroke-miterlimit:4;stroke-dasharray:none;stroke-opacity:1"
       d="m 59.978549,42.355551 c 5.345621,-2.079768 7.219011,2.524331 9.119079,3.915106 2.712752,-6.741504 6.10076,-4.960483 8.600231,-5.794658 1.96314,-0.07733 6.63438,-1.466596 10.502289,-8.053872 1.623594,7.964376 -2.786748,13.09665 -2.801128,15.131516 0.549669,12.250496 2.058948,26.389099 -0.660072,30.976951 -1.0673,3.154008 -21.198088,3.042314 -29.172199,3.196068 -3.155201,0.0605 -3.47041,-27.21302 -2.984579,-31.851343 0.392668,-2.335382 -8.959713,-7.231729 -5.053391,-15.511926 3.95832,3.831241 8.10787,9.117069 12.44977,7.992158 z"
       sodipodi:nodetypes="cccccccccc"
       inkscape:export-filename="/home/sven/data/game_programming/magic_mates/gfx/1_axe.png"
       inkscape:export-xdpi="88"
       inkscape:export-ydpi="88" />
    <path
       id="path896-2"
       style="fill:#282828;fill-opacity:1;stroke:#dcdcdc;stroke-width:1.5;stroke-linecap:butt;stroke-linejoin:miter;stroke-miterlimit:4;stroke-dasharray:none;stroke-opacity:1"
       d="m 69.391596,51.117911 c 3.357391,-3.94884 1.765935,-7.997722 10.206321,-7.746154 -0.153998,7.367297 -5.279591,13.137939 -10.01785,17.144485 -5.739678,-4.743773 -8.068305,-8.094753 -10.996859,-14.831928 4.356394,-2.274647 7.477887,1.089736 10.808388,5.433597 z"
       sodipodi:nodetypes="ccccc"
       inkscape:export-filename="/home/sven/data/game_programming/magic_mates/gfx/1_axe.png"
       inkscape:export-xdpi="88"
       inkscape:export-ydpi="88" />
    <path
       id="path913-70"
       style="fill:#282828;fill-opacity:1;stroke:#dcdcdc;stroke-width:1.5;stroke-linecap:butt;stroke-linejoin:miter;stroke-miterlimit:4;stroke-dasharray:none;stroke-opacity:1"
       d="m 2.0774389,37.119063 c 1.54551,9.002618 20.6591091,18.638639 32.6653791,14.718456 -9.5023,-6.13061 -7.570851,-19.884768 -10.75621,-21.882843 -3.78351,-1.617044 -8.27344,11.852238 -21.9091691,7.164387 z"
       sodipodi:nodetypes="cccc"
       inkscape:export-filename="/home/sven/data/game_programming/magic_mates/gfx/1_axe.png"
       inkscape:export-xdpi="88"
       inkscape:export-ydpi="88" />
    <path
       id="path913-7-9"
       style="fill:none;fill-opacity:1;stroke:#dcdcdc;stroke-width:1.5;stroke-linecap:butt;stroke-linejoin:miter;stroke-miterlimit:4;stroke-dasharray:none;stroke-opacity:1"
       d="M 41.671719,36.633765 C 40.126208,27.631139 21.012588,17.995111 9.0063489,21.915311 c 9.5022891,6.1306 7.5708291,19.884763 10.7561991,21.882833 3.78351,1.617036 8.27343,-11.852222 21.909171,-7.164379 z"
       sodipodi:nodetypes="cccc"
       inkscape:export-filename="/home/sven/data/game_programming/magic_mates/gfx/1_axe.png"
       inkscape:export-xdpi="88"
       inkscape:export-ydpi="88" />
    <path
       id="path903-3"
       style="fill:#282828;fill-opacity:1;stroke:#dcdcdc;stroke-width:1.5;stroke-linecap:butt;stroke-linejoin:miter;stroke-miterlimit:4;stroke-dasharray:none;stroke-opacity:1"
       d="M 6.0598189,29.791306 C 8.7476689,27.440171 98.702442,73.59413 97.659312,76.16256 96.203432,78.219706 4.8482389,31.949692 6.0598189,29.791306 Z"
       sodipodi:nodetypes="ccc"
       inkscape:export-filename="/home/sven/data/game_programming/magic_mates/gfx/1_axe.png"
       inkscape:export-xdpi="88"
       inkscape:export-ydpi="88" />
    <path
       id="path905-60"
       style="fill:#282828;fill-opacity:1;stroke:#dcdcdc;stroke-width:1.5;stroke-linecap:butt;stroke-linejoin:miter;stroke-miterlimit:4;stroke-dasharray:none;stroke-opacity:1"
       d="m 95.683582,62.619835 c -5.00433,3.806875 -9.440324,8.649782 -15.472903,10.857606 -6.12642,0.373827 -3.364839,-8.30562 1.47067,-7.791003 5.14423,-1.824096 10.292083,-11.659156 15.879413,-7.235116 0.96316,1.620322 0.0356,3.898522 -1.87718,4.168513 z"
       inkscape:export-filename="/home/sven/data/game_programming/magic_mates/gfx/1_axe.png"
       inkscape:export-xdpi="88"
       inkscape:export-ydpi="88" />
    <path
       id="path905-5-6"
       style="fill:#282828;fill-opacity:1;stroke:#dcdcdc;stroke-width:1.53124;stroke-linecap:butt;stroke-linejoin:miter;stroke-miterlimit:4;stroke-dasharray:none;stroke-opacity:1"
       d="m 41.614381,64.636873 c -2.193793,-6.155021 -5.540452,-12.054036 -5.911374,-18.755278 1.407237,-6.24177 8.899181,-0.860332 7.015406,3.821941 0.26034,5.696749 8.16854,13.814118 2.335525,18.069001 -1.824419,0.474703 -3.73257,-1.140579 -3.439557,-3.135664 z"
       inkscape:export-filename="/home/sven/data/game_programming/magic_mates/gfx/1_axe.png"
       inkscape:export-xdpi="88"
       inkscape:export-ydpi="88" />
  </g>
</svg>
