<?xml version="1.0" encoding="UTF-8" standalone="no"?>
<svg
   xmlns:dc="http://purl.org/dc/elements/1.1/"
   xmlns:cc="http://creativecommons.org/ns#"
   xmlns:rdf="http://www.w3.org/1999/02/22-rdf-syntax-ns#"
   xmlns:svg="http://www.w3.org/2000/svg"
   xmlns="http://www.w3.org/2000/svg"
   xmlns:sodipodi="http://sodipodi.sourceforge.net/DTD/sodipodi-0.dtd"
   xmlns:inkscape="http://www.inkscape.org/namespaces/inkscape"
   width="100mm"
   height="80mm"
   viewBox="0 0 100 80"
   version="1.1"
   id="svg8"
   inkscape:version="1.0.1 (3bc2e813f5, 2020-09-07, custom)"
   sodipodi:docname="sword_and_shield.svg"
   inkscape:export-filename="/home/sven/data/game_programming/magic_mates/gfx/2_sword_and_shield.png"
   inkscape:export-xdpi="88"
   inkscape:export-ydpi="88">
  <defs
     id="defs2" />
  <sodipodi:namedview
     id="base"
     pagecolor="#ffffff"
     bordercolor="#666666"
     borderopacity="1.0"
     inkscape:pageopacity="0.0"
     inkscape:pageshadow="2"
     inkscape:zoom="0.7"
     inkscape:cx="565.50785"
     inkscape:cy="226.26542"
     inkscape:document-units="mm"
     inkscape:current-layer="layer1"
     inkscape:document-rotation="0"
     showgrid="false"
     inkscape:window-width="1920"
     inkscape:window-height="1028"
     inkscape:window-x="0"
     inkscape:window-y="0"
     inkscape:window-maximized="1"
     inkscape:snap-global="false" />
  <metadata
     id="metadata5">
    <rdf:RDF>
      <cc:Work
         rdf:about="">
        <dc:format>image/svg+xml</dc:format>
        <dc:type
           rdf:resource="http://purl.org/dc/dcmitype/StillImage" />
        <dc:title />
      </cc:Work>
    </rdf:RDF>
  </metadata>
  <g
     inkscape:label="Layer 1"
     inkscape:groupmode="layer"
     id="layer1">
    <rect
       style="fill:#dcdcdc;fill-opacity:1;stroke:#282828;stroke-width:1.5;stroke-linecap:round;stroke-miterlimit:4;stroke-dasharray:none;stroke-opacity:1"
       id="rect10"
       width="99.000008"
       height="79.000008"
       x="187.55115"
       y="-48.85429"
       inkscape:export-filename="/home/sven/data/game_programming/magic_mates/gfx/1_sword_and_shield.png"
       inkscape:export-xdpi="88"
       inkscape:export-ydpi="88" />
    <path
       id="path956-3"
       style="fill:#dcdcdc;fill-opacity:1;stroke:#000000;stroke-width:1.5;stroke-linecap:butt;stroke-linejoin:miter;stroke-miterlimit:4;stroke-dasharray:none;stroke-opacity:1"
       d="m 205.40111,10.037561 c -3.1838,-0.5773116 0.0808,-5.9278846 1.2381,-7.1966606 1.1043,-1.320042 0.2171,-2.68868199 2.63816,0.92161 -4.96573,2.527955 1.6723,5.852802 -3.87626,6.2750506 z"
       sodipodi:nodetypes="cccc"
       inkscape:export-filename="/home/sven/data/game_programming/magic_mates/gfx/1_sword_and_shield.png"
       inkscape:export-xdpi="88"
       inkscape:export-ydpi="88" />
    <path
       id="path975"
       style="fill:#dcdcdc;fill-opacity:1;stroke:#000000;stroke-width:1.5;stroke-linecap:butt;stroke-linejoin:miter;stroke-miterlimit:4;stroke-dasharray:none;stroke-opacity:1"
       d="m 232.86943,3.3219684 c -3.76097,1.872823 -7.95445,2.984395 -12.00547,4.107743 -4.33941,0.913277 -7.82886,-1.914254 -10.59286,-4.579384 -1.35079,-2.14577999 -4.10309,-2.79045099 -6.04752,-0.354622 -1.48396,2.825149 1.23034,5.27275 2.97989,6.823335 3.00424,2.2437486 8.83302,6.2575176 12.53714,7.2362106 4.99967,-0.02433 19.91425,-4.069933 25.01323,-9.0177416 1.70098,-1.990183 1.06317,-4.655622 -0.54307,-6.070307 -3.49768,-2.08492999 -7.49543,-0.64523099 -11.34134,1.854766 z"
       sodipodi:nodetypes="ccccccccc"
       inkscape:export-filename="/home/sven/data/game_programming/magic_mates/gfx/1_sword_and_shield.png"
       inkscape:export-xdpi="88"
       inkscape:export-ydpi="88" />
    <path
       id="path1100"
       style="fill:#dcdcdc;fill-opacity:1;stroke:#000000;stroke-width:1.5;stroke-linecap:butt;stroke-linejoin:miter;stroke-miterlimit:4;stroke-dasharray:none;stroke-opacity:1"
       d="m 235.63749,27.571063 c -7.78176,-13.24459 -4.11315,-28.34454659 7.35193,-30.6282836 26.90177,-5.549772 26.84587,0.460359 23.86379,26.3161636 -5.89509,8.166329 -22.31505,7.995359 -31.21572,4.31212 z"
       sodipodi:nodetypes="cccc"
       inkscape:export-filename="/home/sven/data/game_programming/magic_mates/gfx/1_sword_and_shield.png"
       inkscape:export-xdpi="88"
       inkscape:export-ydpi="88" />
    <path
       id="path1084"
       style="fill:#dcdcdc;fill-opacity:1;stroke:#000000;stroke-width:1.5;stroke-linecap:butt;stroke-linejoin:miter;stroke-miterlimit:4;stroke-dasharray:none;stroke-opacity:1"
       d="m 245.20784,-10.024376 c 1.16836,2.8935984 -1.17255,6.3302314 1.15182,8.9294284 2.8943,2.299527 6.64256,-1.173966 6.7188,-3.930257 0.95896,-3.080435 -1.58316,-6.5614684 -5.47483,-5.9679654 -0.88454,0.07607 -1.80492,0.353195 -2.39579,0.968794 z"
       inkscape:export-filename="/home/sven/data/game_programming/magic_mates/gfx/1_sword_and_shield.png"
       inkscape:export-xdpi="88"
       inkscape:export-ydpi="88" />
    <path
       id="path892"
       style="fill:#dcdcdc;fill-opacity:1;stroke:#000000;stroke-width:1.5;stroke-linecap:butt;stroke-linejoin:miter;stroke-miterlimit:4;stroke-dasharray:none;stroke-opacity:1"
       d="m 259.36335,-25.126508 c -3.40525,-8.04091 -13.52661,-8.52203 -18.6053,-2.517648 -3.42694,3.625966 -2.95928,8.71387 -2.46884,13.752023 0.97398,5.3299114 5.18248,8.8006154 11.48208,5.9080994 3.37789,-1.918247 12.29768,-6.1423974 11.79135,-13.6797064 -0.28802,-1.450996 -1.13499,-2.695584 -2.19929,-3.462768 z"
       sodipodi:nodetypes="cccccc"
       inkscape:export-filename="/home/sven/data/game_programming/magic_mates/gfx/1_sword_and_shield.png"
       inkscape:export-xdpi="88"
       inkscape:export-ydpi="88" />
    <path
       id="path857"
       style="fill:#dcdcdc;fill-opacity:1;stroke:#000000;stroke-width:1.5;stroke-linecap:butt;stroke-linejoin:miter;stroke-miterlimit:4;stroke-dasharray:none;stroke-opacity:1"
       d="m 242.61899,-36.403118 c 2.71688,-6.33161 -3.88873,-4.03782 -4.56589,-10.235 15.39998,-1.30471 27.05194,-3.41542 31.07275,28.150028 -6.77512,-0.602089 -3.61395,-3.75748 -10.84979,0.18757 -1.86854,-18.710358 -14.04384,-15.469368 -15.65707,-18.102598 z"
       sodipodi:nodetypes="ccccc"
       inkscape:export-filename="/home/sven/data/game_programming/magic_mates/gfx/1_sword_and_shield.png"
       inkscape:export-xdpi="88"
       inkscape:export-ydpi="88" />
    <path
       id="path850"
       style="fill:#dcdcdc;fill-opacity:1;stroke:#000000;stroke-width:1.5;stroke-linecap:butt;stroke-linejoin:miter;stroke-miterlimit:4;stroke-dasharray:none;stroke-opacity:1"
       d="m 238.00632,-18.987169 c -0.33855,-3.260001 1.30608,-9.424458 4.62325,-8.041412 1.98139,0.425038 -1.08407,10.227988 1.46284,10.06592 2.42122,-0.15224 3.34162,-8.959271 6.67183,-8.415369 5.78669,3.129788 -6.66529,14.396923 6.87498,17.4808954 4.36298,1.054704 3.89905,-4.0552124 4.10131,-7.9892784 -0.30054,-14.894995 -4.82455,-21.952085 -13.71129,-23.011565 -12.74708,-0.52798 -11.98184,20.185663 -10.02292,19.910809 z"
       sodipodi:nodetypes="cccccccc"
       inkscape:export-filename="/home/sven/data/game_programming/magic_mates/gfx/1_sword_and_shield.png"
       inkscape:export-xdpi="88"
       inkscape:export-ydpi="88" />
    <path
       style="fill:#dcdcdc;fill-opacity:1;stroke:#000000;stroke-width:1.5;stroke-linecap:round;stroke-miterlimit:4;stroke-dasharray:none;stroke-opacity:1"
       id="path869"
       sodipodi:type="arc"
       sodipodi:cx="240.80151"
       sodipodi:cy="-22.837545"
       sodipodi:rx="0.82645315"
       sodipodi:ry="1.0457062"
       sodipodi:start="4.6021889"
       sodipodi:end="4.5774925"
       sodipodi:open="true"
       sodipodi:arc-type="arc"
       d="m 240.71062,-23.876908 a 0.82645315,1.0457062 0 0 1 0.91176,0.917944 0.82645315,1.0457062 0 0 1 -0.71984,1.159282 0.82645315,1.0457062 0 0 1 -0.92064,-0.903629 0.82645315,1.0457062 0 0 1 0.70847,-1.170441"
       inkscape:export-filename="/home/sven/data/game_programming/magic_mates/gfx/1_sword_and_shield.png"
       inkscape:export-xdpi="88"
       inkscape:export-ydpi="88" />
    <path
       style="fill:#dcdcdc;fill-opacity:1;stroke:#000000;stroke-width:1.5;stroke-linecap:round;stroke-miterlimit:4;stroke-dasharray:none;stroke-opacity:1"
       id="path869-3"
       sodipodi:type="arc"
       sodipodi:cx="249.44423"
       sodipodi:cy="-20.548429"
       sodipodi:rx="0.82645315"
       sodipodi:ry="1.0457062"
       sodipodi:start="4.6021889"
       sodipodi:end="4.5774925"
       sodipodi:open="true"
       sodipodi:arc-type="arc"
       d="m 249.35334,-21.587793 a 0.82645315,1.0457062 0 0 1 0.91175,0.917945 0.82645315,1.0457062 0 0 1 -0.71983,1.159282 0.82645315,1.0457062 0 0 1 -0.92065,-0.903629 0.82645315,1.0457062 0 0 1 0.70847,-1.170441"
       inkscape:export-filename="/home/sven/data/game_programming/magic_mates/gfx/1_sword_and_shield.png"
       inkscape:export-xdpi="88"
       inkscape:export-ydpi="88" />
    <path
       id="path951"
       style="fill:#dcdcdc;fill-opacity:1;stroke:#000000;stroke-width:1.5;stroke-linecap:butt;stroke-linejoin:miter;stroke-miterlimit:4;stroke-dasharray:none;stroke-opacity:1"
       d="m 247.96482,-12.084135 c -2.36456,1.201816 -4.63491,2.1372954 -6.85072,-1.358498 2.56975,0.342509 4.92078,0.965817 6.85072,1.358498 z"
       sodipodi:nodetypes="ccc"
       inkscape:export-filename="/home/sven/data/game_programming/magic_mates/gfx/1_sword_and_shield.png"
       inkscape:export-xdpi="88"
       inkscape:export-ydpi="88" />
    <path
       id="path893"
       style="fill:#dcdcdc;fill-opacity:1;stroke:#000000;stroke-width:1.5;stroke-linecap:butt;stroke-linejoin:miter;stroke-miterlimit:4;stroke-dasharray:none;stroke-opacity:1"
       d="m 219.60495,20.70154 c 14.8126,-7.604203 31.84867,-21.10149159 42.17826,-34.866561 11.79462,19.4593064 17.51349,40.632112 24.11041,60.469673 C 270.1809,44.293823 234.02399,27.31495 219.60495,20.70154 Z"
       sodipodi:nodetypes="cccc"
       inkscape:export-filename="/home/sven/data/game_programming/magic_mates/gfx/1_sword_and_shield.png"
       inkscape:export-xdpi="88"
       inkscape:export-ydpi="88" />
    <path
       id="path893-6"
       style="fill:#dcdcdc;fill-opacity:1;stroke:#000000;stroke-width:1.5;stroke-linecap:butt;stroke-linejoin:miter;stroke-miterlimit:4;stroke-dasharray:none;stroke-opacity:1"
       d="M 229.09011,19.73431 C 240.19551,14.033236 252.9679,3.9139674 260.71225,-6.4060656 269.55501,8.1830894 273.84259,24.056885 278.78848,38.929637 267.00822,37.422068 239.90044,24.692567 229.09011,19.73431 Z"
       sodipodi:nodetypes="cccc"
       inkscape:export-filename="/home/sven/data/game_programming/magic_mates/gfx/1_sword_and_shield.png"
       inkscape:export-xdpi="88"
       inkscape:export-ydpi="88" />
    <path
       id="path893-6-7"
       style="fill:#dcdcdc;fill-opacity:1;stroke:#000000;stroke-width:1.5;stroke-linecap:butt;stroke-linejoin:miter;stroke-miterlimit:4;stroke-dasharray:none;stroke-opacity:1"
       d="m 239.54602,18.703632 c 7.15127,-3.671147 15.37596,-10.1874276 20.3629,-16.8329496 5.69424,9.3945976 8.45521,19.6164496 11.64007,29.1936516 -7.58582,-0.970787 -25.04172,-9.167863 -32.00297,-12.360702 z"
       sodipodi:nodetypes="cccc"
       inkscape:export-filename="/home/sven/data/game_programming/magic_mates/gfx/1_sword_and_shield.png"
       inkscape:export-xdpi="88"
       inkscape:export-ydpi="88" />
    <path
       id="path940"
       style="fill:#dcdcdc;fill-opacity:1;stroke:#000000;stroke-width:1.5;stroke-linecap:butt;stroke-linejoin:miter;stroke-miterlimit:4;stroke-dasharray:none;stroke-opacity:1"
       d="m 228.26485,-46.815994 c -3.93677,5.57571 -13.61009,25.001564 -22.66877,47.28832241 4.37213,2.38628599 1.91534,0.92218899 4.57378,1.86170499 4.92781,-12.314801 16.77819,-40.8639374 18.09499,-49.1500374 z"
       sodipodi:nodetypes="cccc"
       inkscape:export-filename="/home/sven/data/game_programming/magic_mates/gfx/1_sword_and_shield.png"
       inkscape:export-xdpi="88"
       inkscape:export-ydpi="88" />
    <path
       id="path956"
       style="fill:#dcdcdc;fill-opacity:1;stroke:#000000;stroke-width:1.5;stroke-linecap:butt;stroke-linejoin:miter;stroke-miterlimit:4;stroke-dasharray:none;stroke-opacity:1"
       d="m 218.23497,0.68865041 c -0.33072,4.60812199 -7.12436,2.08451899 -9.20805,1.13828499 -2.119,-0.86265699 -12.34953,-4.719628 -9.22149,-9.006435 3.35996,3.120176 14.88213,7.46558101 18.42954,7.86815901 z"
       sodipodi:nodetypes="cccc"
       inkscape:export-filename="/home/sven/data/game_programming/magic_mates/gfx/1_sword_and_shield.png"
       inkscape:export-xdpi="88"
       inkscape:export-ydpi="88" />
    <rect
       style="fill:#282828;fill-opacity:1;stroke:#dcdcdc;stroke-width:1.5;stroke-linecap:round;stroke-miterlimit:4;stroke-dasharray:none;stroke-opacity:1"
       id="rect10-3"
       width="99.000008"
       height="79.000008"
       x="0.75"
       y="0.75"
       inkscape:export-filename="/home/sven/data/game_programming/magic_mates/gfx/1_sword_and_shield.png"
       inkscape:export-xdpi="88"
       inkscape:export-ydpi="88" />
    <path
       id="path956-3-6"
       style="fill:#282828;fill-opacity:1;stroke:#dcdcdc;stroke-width:1.5;stroke-linecap:butt;stroke-linejoin:miter;stroke-miterlimit:4;stroke-dasharray:none;stroke-opacity:1"
       d="m 18.599964,59.641852 c -3.1838,-0.57731 0.0808,-5.927884 1.2381,-7.196661 1.1043,-1.320041 0.2171,-2.68868 2.63816,0.921612 -4.96573,2.527954 1.6723,5.852801 -3.87626,6.275049 z"
       sodipodi:nodetypes="cccc"
       inkscape:export-filename="/home/sven/data/game_programming/magic_mates/gfx/1_sword_and_shield.png"
       inkscape:export-xdpi="88"
       inkscape:export-ydpi="88" />
    <path
       id="path975-7"
       style="fill:#282828;fill-opacity:1;stroke:#dcdcdc;stroke-width:1.5;stroke-linecap:butt;stroke-linejoin:miter;stroke-miterlimit:4;stroke-dasharray:none;stroke-opacity:1"
       d="m 46.068285,52.926259 c -3.76097,1.872824 -7.954452,2.984397 -12.005471,4.107743 -4.33941,0.913279 -7.82886,-1.914252 -10.59286,-4.579384 -1.35079,-2.145779 -4.10309,-2.790449 -6.04752,-0.354621 -1.48396,2.825149 1.23034,5.272749 2.97989,6.823334 3.00424,2.243749 8.833019,6.257518 12.53714,7.236211 4.99967,-0.02432 19.914251,-4.069932 25.01323,-9.01774 1.70098,-1.990183 1.06317,-4.655622 -0.543071,-6.070307 -3.49768,-2.084932 -7.495428,-0.645231 -11.341338,1.854764 z"
       sodipodi:nodetypes="ccccccccc"
       inkscape:export-filename="/home/sven/data/game_programming/magic_mates/gfx/1_sword_and_shield.png"
       inkscape:export-xdpi="88"
       inkscape:export-ydpi="88" />
    <path
       id="path1100-5"
       style="fill:#282828;fill-opacity:1;stroke:#dcdcdc;stroke-width:1.5;stroke-linecap:butt;stroke-linejoin:miter;stroke-miterlimit:4;stroke-dasharray:none;stroke-opacity:1"
       d="M 48.836343,77.175356 C 41.054585,63.930764 44.723194,48.830808 56.188275,46.54707 c 26.901772,-5.54977 26.845872,0.460359 23.863792,26.316165 -5.895094,8.16633 -22.315053,7.995359 -31.215724,4.312121 z"
       sodipodi:nodetypes="cccc"
       inkscape:export-filename="/home/sven/data/game_programming/magic_mates/gfx/1_sword_and_shield.png"
       inkscape:export-xdpi="88"
       inkscape:export-ydpi="88" />
    <path
       id="path1084-3"
       style="fill:#282828;fill-opacity:1;stroke:#dcdcdc;stroke-width:1.5;stroke-linecap:butt;stroke-linejoin:miter;stroke-miterlimit:4;stroke-dasharray:none;stroke-opacity:1"
       d="m 58.406695,39.579916 c 1.16836,2.893597 -1.172551,6.33023 1.151819,8.929428 2.894301,2.299526 6.64256,-1.173967 6.7188,-3.930258 0.958961,-3.080435 -1.583158,-6.561468 -5.47483,-5.967966 -0.884539,0.07607 -1.804919,0.353195 -2.395789,0.968796 z"
       inkscape:export-filename="/home/sven/data/game_programming/magic_mates/gfx/1_sword_and_shield.png"
       inkscape:export-xdpi="88"
       inkscape:export-ydpi="88" />
    <path
       id="path892-5"
       style="fill:#282828;fill-opacity:1;stroke:#dcdcdc;stroke-width:1.5;stroke-linecap:butt;stroke-linejoin:miter;stroke-miterlimit:4;stroke-dasharray:none;stroke-opacity:1"
       d="m 72.562205,24.477783 c -3.405251,-8.040911 -13.526611,-8.522031 -18.605302,-2.517648 -3.426938,3.625966 -2.959279,8.713869 -2.46884,13.752023 0.973982,5.329912 5.182481,8.800615 11.482081,5.9081 3.37789,-1.918247 12.29768,-6.142397 11.791349,-13.679707 -0.28802,-1.450996 -1.134988,-2.695584 -2.199288,-3.462768 z"
       sodipodi:nodetypes="cccccc"
       inkscape:export-filename="/home/sven/data/game_programming/magic_mates/gfx/1_sword_and_shield.png"
       inkscape:export-xdpi="88"
       inkscape:export-ydpi="88" />
    <path
       id="path857-6"
       style="fill:#282828;fill-opacity:1;stroke:#dcdcdc;stroke-width:1.5;stroke-linecap:butt;stroke-linejoin:miter;stroke-miterlimit:4;stroke-dasharray:none;stroke-opacity:1"
       d="M 55.817845,13.201172 C 58.534724,6.8695623 51.929113,9.1633525 51.251954,2.9661723 66.651935,1.6614623 78.303894,-0.44924715 82.324707,31.116202 75.549584,30.514111 78.710754,27.358722 71.474913,31.303771 69.606375,12.593412 57.431073,15.834402 55.817845,13.201172 Z"
       sodipodi:nodetypes="ccccc"
       inkscape:export-filename="/home/sven/data/game_programming/magic_mates/gfx/1_sword_and_shield.png"
       inkscape:export-xdpi="88"
       inkscape:export-ydpi="88" />
    <path
       id="path850-2"
       style="fill:#282828;fill-opacity:1;stroke:#dcdcdc;stroke-width:1.5;stroke-linecap:butt;stroke-linejoin:miter;stroke-miterlimit:4;stroke-dasharray:none;stroke-opacity:1"
       d="m 51.205173,30.617121 c -0.33855,-3.26 1.306082,-9.424458 4.62325,-8.041411 1.981391,0.425038 -1.084069,10.227989 1.462842,10.065921 2.42122,-0.152241 3.341618,-8.959272 6.671828,-8.41537 5.786692,3.129789 -6.665288,14.396924 6.874981,17.480895 4.362979,1.054705 3.899051,-4.055211 4.101309,-7.989277 C 74.638846,18.822882 70.114833,11.765792 61.228095,10.706312 48.481013,10.178332 49.246254,30.891976 51.205173,30.617121 Z"
       sodipodi:nodetypes="cccccccc"
       inkscape:export-filename="/home/sven/data/game_programming/magic_mates/gfx/1_sword_and_shield.png"
       inkscape:export-xdpi="88"
       inkscape:export-ydpi="88" />
    <path
       style="fill:#282828;fill-opacity:1;stroke:#dcdcdc;stroke-width:1.5;stroke-linecap:round;stroke-miterlimit:4;stroke-dasharray:none;stroke-opacity:1"
       id="path869-9"
       sodipodi:type="arc"
       sodipodi:cx="54.000366"
       sodipodi:cy="26.766745"
       sodipodi:rx="0.82645315"
       sodipodi:ry="1.0457062"
       sodipodi:start="4.6021889"
       sodipodi:end="4.5774925"
       sodipodi:open="true"
       sodipodi:arc-type="arc"
       d="m 53.909475,25.727382 a 0.82645315,1.0457062 0 0 1 0.911754,0.917944 0.82645315,1.0457062 0 0 1 -0.719836,1.159282 0.82645315,1.0457062 0 0 1 -0.920642,-0.903629 0.82645315,1.0457062 0 0 1 0.708467,-1.170441"
       inkscape:export-filename="/home/sven/data/game_programming/magic_mates/gfx/1_sword_and_shield.png"
       inkscape:export-xdpi="88"
       inkscape:export-ydpi="88" />
    <path
       style="fill:#282828;fill-opacity:1;stroke:#dcdcdc;stroke-width:1.5;stroke-linecap:round;stroke-miterlimit:4;stroke-dasharray:none;stroke-opacity:1"
       id="path869-3-1"
       sodipodi:type="arc"
       sodipodi:cx="62.643089"
       sodipodi:cy="29.055862"
       sodipodi:rx="0.82645315"
       sodipodi:ry="1.0457062"
       sodipodi:start="4.6021889"
       sodipodi:end="4.5774925"
       sodipodi:open="true"
       sodipodi:arc-type="arc"
       d="m 62.552198,28.016499 a 0.82645315,1.0457062 0 0 1 0.911754,0.917945 0.82645315,1.0457062 0 0 1 -0.719836,1.159282 0.82645315,1.0457062 0 0 1 -0.920642,-0.903629 0.82645315,1.0457062 0 0 1 0.708467,-1.170441"
       inkscape:export-filename="/home/sven/data/game_programming/magic_mates/gfx/1_sword_and_shield.png"
       inkscape:export-xdpi="88"
       inkscape:export-ydpi="88" />
    <path
       id="path951-2"
       style="fill:#282828;fill-opacity:1;stroke:#dcdcdc;stroke-width:1.5;stroke-linecap:butt;stroke-linejoin:miter;stroke-miterlimit:4;stroke-dasharray:none;stroke-opacity:1"
       d="m 61.163675,37.520156 c -2.36456,1.201817 -4.63491,2.137296 -6.850722,-1.358498 2.56975,0.342509 4.920782,0.965817 6.850722,1.358498 z"
       sodipodi:nodetypes="ccc"
       inkscape:export-filename="/home/sven/data/game_programming/magic_mates/gfx/1_sword_and_shield.png"
       inkscape:export-xdpi="88"
       inkscape:export-ydpi="88" />
    <path
       id="path893-7"
       style="fill:#282828;fill-opacity:1;stroke:#dcdcdc;stroke-width:1.5;stroke-linecap:butt;stroke-linejoin:miter;stroke-miterlimit:4;stroke-dasharray:none;stroke-opacity:1"
       d="M 32.803805,70.30583 C 47.616405,62.701629 64.652473,49.204341 74.982063,35.439272 86.776687,54.898577 92.495557,76.071382 99.092477,95.908943 83.379757,93.898115 47.222845,76.919242 32.803805,70.30583 Z"
       sodipodi:nodetypes="cccc"
       inkscape:export-filename="/home/sven/data/game_programming/magic_mates/gfx/1_sword_and_shield.png"
       inkscape:export-xdpi="88"
       inkscape:export-ydpi="88" />
    <path
       id="path893-6-0"
       style="fill:#282828;fill-opacity:1;stroke:#dcdcdc;stroke-width:1.5;stroke-linecap:butt;stroke-linejoin:miter;stroke-miterlimit:4;stroke-dasharray:none;stroke-opacity:1"
       d="M 42.288964,69.338601 C 53.394365,63.637529 66.166755,53.518259 73.911104,43.198225 82.753867,57.787382 87.041447,73.661176 91.987337,88.533929 80.207077,87.026359 53.099294,74.296858 42.288964,69.338601 Z"
       sodipodi:nodetypes="cccc"
       inkscape:export-filename="/home/sven/data/game_programming/magic_mates/gfx/1_sword_and_shield.png"
       inkscape:export-xdpi="88"
       inkscape:export-ydpi="88" />
    <path
       id="path893-6-7-9"
       style="fill:#282828;fill-opacity:1;stroke:#dcdcdc;stroke-width:1.5;stroke-linecap:butt;stroke-linejoin:miter;stroke-miterlimit:4;stroke-dasharray:none;stroke-opacity:1"
       d="m 52.744874,68.307925 c 7.151269,-3.671147 15.375961,-10.18743 20.362899,-16.832951 5.694241,9.394598 8.455214,19.616449 11.640074,29.193652 C 77.162023,79.697838 59.706125,71.500763 52.744874,68.307925 Z"
       sodipodi:nodetypes="cccc"
       inkscape:export-filename="/home/sven/data/game_programming/magic_mates/gfx/1_sword_and_shield.png"
       inkscape:export-xdpi="88"
       inkscape:export-ydpi="88" />
    <path
       id="path940-3"
       style="fill:#282828;fill-opacity:1;stroke:#dcdcdc;stroke-width:1.5;stroke-linecap:butt;stroke-linejoin:miter;stroke-miterlimit:4;stroke-dasharray:none;stroke-opacity:1"
       d="M 41.463704,2.7882964 C 37.526935,8.3640065 27.853615,27.789861 18.794934,50.07662 c 4.37213,2.386287 1.91534,0.922189 4.57378,1.861706 4.92781,-12.314801 16.778191,-40.86394 18.09499,-49.1500396 z"
       sodipodi:nodetypes="cccc"
       inkscape:export-filename="/home/sven/data/game_programming/magic_mates/gfx/1_sword_and_shield.png"
       inkscape:export-xdpi="88"
       inkscape:export-ydpi="88" />
    <path
       id="path956-6"
       style="fill:#282828;fill-opacity:1;stroke:#dcdcdc;stroke-width:1.5;stroke-linecap:butt;stroke-linejoin:miter;stroke-miterlimit:4;stroke-dasharray:none;stroke-opacity:1"
       d="m 31.433824,50.292943 c -0.330721,4.608121 -7.12436,2.084517 -9.20805,1.138285 -2.119,-0.862658 -12.3495314,-4.71963 -9.22149,-9.006435 3.35996,3.120176 14.882131,7.465581 18.42954,7.868158 z"
       sodipodi:nodetypes="cccc"
       inkscape:export-filename="/home/sven/data/game_programming/magic_mates/gfx/1_sword_and_shield.png"
       inkscape:export-xdpi="88"
       inkscape:export-ydpi="88" />
  </g>
</svg>
