<?xml version="1.0" encoding="UTF-8" standalone="no"?>
<svg
   xmlns:dc="http://purl.org/dc/elements/1.1/"
   xmlns:cc="http://creativecommons.org/ns#"
   xmlns:rdf="http://www.w3.org/1999/02/22-rdf-syntax-ns#"
   xmlns:svg="http://www.w3.org/2000/svg"
   xmlns="http://www.w3.org/2000/svg"
   xmlns:sodipodi="http://sodipodi.sourceforge.net/DTD/sodipodi-0.dtd"
   xmlns:inkscape="http://www.inkscape.org/namespaces/inkscape"
   width="100mm"
   height="100mm"
   viewBox="0 0 100 100"
   version="1.1"
   id="svg8"
   inkscape:version="1.0.1 (3bc2e813f5, 2020-09-07, custom)"
   sodipodi:docname="team1_sword_shield.svg">
  <defs
     id="defs2" />
  <sodipodi:namedview
     id="base"
     pagecolor="#ffffff"
     bordercolor="#666666"
     borderopacity="1.0"
     inkscape:pageopacity="0.0"
     inkscape:pageshadow="2"
     inkscape:zoom="0.98994949"
     inkscape:cx="366.94976"
     inkscape:cy="226.37803"
     inkscape:document-units="mm"
     inkscape:current-layer="layer1"
     inkscape:document-rotation="0"
     showgrid="false"
     inkscape:window-width="1920"
     inkscape:window-height="1028"
     inkscape:window-x="0"
     inkscape:window-y="0"
     inkscape:window-maximized="1"
     inkscape:snap-global="false" />
  <metadata
     id="metadata5">
    <rdf:RDF>
      <cc:Work
         rdf:about="">
        <dc:format>image/svg+xml</dc:format>
        <dc:type
           rdf:resource="http://purl.org/dc/dcmitype/StillImage" />
        <dc:title />
      </cc:Work>
    </rdf:RDF>
  </metadata>
  <g
     inkscape:label="Layer 1"
     inkscape:groupmode="layer"
     id="layer1">
    <rect
       style="fill:#dcdcdc;fill-opacity:1;stroke:none;stroke-width:1;stroke-linecap:round;stroke-miterlimit:4;stroke-dasharray:none;stroke-opacity:1"
       id="rect10"
       width="100"
       height="100"
       x="0"
       y="0" />
    <path
       id="path975"
       style="fill:#dcdcdc;fill-opacity:1;stroke:#000000;stroke-width:1.36297;stroke-linecap:butt;stroke-linejoin:miter;stroke-miterlimit:4;stroke-dasharray:none;stroke-opacity:1"
       d="m 53.436704,73.080835 c -2.597374,3.30243 -5.911487,6.102 -9.091801,8.851229 -3.530865,2.682819 -7.894788,1.621024 -11.533558,0.395482 -2.139271,-1.361074 -4.902627,-0.76562 -5.617302,2.268087 -0.131871,3.188445 3.368872,4.238665 5.613761,4.891149 3.675525,0.741879 10.661394,1.874417 14.427947,1.173415 4.508094,-2.162033 16.255624,-12.202318 18.74602,-18.856509 0.685404,-2.526734 -1.031933,-4.662645 -3.089129,-5.253649 -4.053494,-0.387135 -7.05026,2.625203 -9.455938,6.530796 z"
       sodipodi:nodetypes="ccccccccc" />
    <path
       id="path1100"
       style="fill:#dcdcdc;fill-opacity:1;stroke:#000000;stroke-width:1.38846;stroke-linecap:butt;stroke-linejoin:miter;stroke-miterlimit:4;stroke-dasharray:none;stroke-opacity:1"
       d="M 52.854215,93.595189 C 45.072451,80.350601 48.74106,65.250643 60.206148,62.966906 c 26.901764,-5.549772 26.84587,0.460359 23.863781,26.316162 -5.895088,8.166337 -22.315046,7.99536 -31.215714,4.312121 z"
       sodipodi:nodetypes="cccc" />
    <path
       id="path1084"
       style="fill:#dcdcdc;fill-opacity:1;stroke:#000000;stroke-width:1.5;stroke-linecap:butt;stroke-linejoin:miter;stroke-miterlimit:4;stroke-dasharray:none;stroke-opacity:1"
       d="m 62.424561,55.999751 c 1.16836,2.893598 -1.17255,6.330231 1.15182,8.929428 2.8943,2.299527 6.64256,-1.173966 6.7188,-3.930257 0.95896,-3.080435 -1.58316,-6.561468 -5.47483,-5.967965 -0.88454,0.07607 -1.80492,0.353195 -2.39579,0.968794 z" />
    <path
       id="path892"
       style="fill:#dcdcdc;fill-opacity:1;stroke:#000000;stroke-width:1.22928;stroke-linecap:butt;stroke-linejoin:miter;stroke-miterlimit:4;stroke-dasharray:none;stroke-opacity:1"
       d="M 76.580077,40.897619 C 73.17482,32.856708 63.053464,32.375593 57.974772,38.379971 c -3.426934,3.625966 -2.959278,8.71387 -2.468836,13.752023 0.973976,5.329911 5.182478,8.800615 11.482075,5.908099 3.377897,-1.918247 12.297682,-6.142397 11.791348,-13.679706 -0.288014,-1.450996 -1.134987,-2.695584 -2.199282,-3.462768 z"
       sodipodi:nodetypes="cccccc" />
    <path
       id="path857"
       style="fill:#dcdcdc;fill-opacity:1;stroke:#000000;stroke-width:1.565;stroke-linecap:butt;stroke-linejoin:miter;stroke-miterlimit:4;stroke-dasharray:none;stroke-opacity:1"
       d="m 59.835712,29.621009 c 2.71688,-6.331613 -3.888727,-4.037817 -4.565887,-10.235001 15.399978,-1.304707 27.05194,-3.415423 31.072745,28.150029 -6.77512,-0.602089 -3.613948,-3.75748 -10.849788,0.18757 -1.86854,-18.710354 -14.04384,-15.469366 -15.65707,-18.102598 z"
       sodipodi:nodetypes="ccccc" />
    <path
       id="path850"
       style="fill:#dcdcdc;fill-opacity:1;stroke:#000000;stroke-width:1.50042;stroke-linecap:butt;stroke-linejoin:miter;stroke-miterlimit:4;stroke-dasharray:none;stroke-opacity:1"
       d="m 55.223043,47.036958 c -0.338547,-3.260001 1.306076,-9.424458 4.623255,-8.041412 1.98139,0.425038 -1.084073,10.227988 1.462836,10.06592 2.421217,-0.15224 3.341617,-8.959271 6.671833,-8.415369 5.786691,3.129788 -6.665292,14.396923 6.874975,17.480895 4.362984,1.054704 3.899047,-4.055212 4.101311,-7.989278 C 78.656709,35.242715 74.132707,28.185626 65.245962,27.12615 52.498887,26.598165 53.264125,47.311812 55.223043,47.036958 Z"
       sodipodi:nodetypes="cccccccc" />
    <path
       style="fill:#dcdcdc;fill-opacity:1;stroke:#000000;stroke-width:1.573;stroke-linecap:round;stroke-miterlimit:4;stroke-dasharray:none;stroke-opacity:1"
       id="path869"
       sodipodi:type="arc"
       sodipodi:cx="58.018242"
       sodipodi:cy="43.186581"
       sodipodi:rx="0.82645315"
       sodipodi:ry="1.0457062"
       sodipodi:start="4.6021889"
       sodipodi:end="4.5774925"
       sodipodi:open="true"
       sodipodi:arc-type="arc"
       d="m 57.927351,42.147218 a 0.82645315,1.0457062 0 0 1 0.911754,0.917944 0.82645315,1.0457062 0 0 1 -0.719836,1.159282 0.82645315,1.0457062 0 0 1 -0.920643,-0.903629 0.82645315,1.0457062 0 0 1 0.708468,-1.170441" />
    <path
       style="fill:#dcdcdc;fill-opacity:1;stroke:#000000;stroke-width:1.573;stroke-linecap:round;stroke-miterlimit:4;stroke-dasharray:none;stroke-opacity:1"
       id="path869-3"
       sodipodi:type="arc"
       sodipodi:cx="66.66095"
       sodipodi:cy="45.4757"
       sodipodi:rx="0.82645315"
       sodipodi:ry="1.0457062"
       sodipodi:start="4.6021889"
       sodipodi:end="4.5774925"
       sodipodi:open="true"
       sodipodi:arc-type="arc"
       d="m 66.570059,44.436337 a 0.82645315,1.0457062 0 0 1 0.911754,0.917945 0.82645315,1.0457062 0 0 1 -0.719836,1.159282 0.82645315,1.0457062 0 0 1 -0.920643,-0.903629 0.82645315,1.0457062 0 0 1 0.708468,-1.170441" />
    <path
       id="path951"
       style="fill:none;stroke:#000000;stroke-width:1.581;stroke-linecap:butt;stroke-linejoin:miter;stroke-miterlimit:4;stroke-dasharray:none;stroke-opacity:1"
       d="m 65.181542,53.939992 c -2.364554,1.201816 -4.634905,2.137295 -6.850715,-1.358498 2.569748,0.342509 4.920777,0.965817 6.850715,1.358498 z"
       sodipodi:nodetypes="ccc" />
    <path
       id="path893"
       style="fill:#dcdcdc;fill-opacity:1;stroke:#000000;stroke-width:1.5;stroke-linecap:butt;stroke-linejoin:miter;stroke-miterlimit:4;stroke-dasharray:none;stroke-opacity:1"
       d="m 36.847809,72.415972 c 16.64919,0.203756 38.01916,-3.762201 53.58602,-11.100476 1.32788,22.715957 -3.51615,44.105874 -6.95972,64.726014 -12.94939,-9.12399 -36.97244,-41.037889 -46.6263,-53.625538 z"
       sodipodi:nodetypes="cccc" />
    <path
       id="path893-6"
       style="fill:#dcdcdc;fill-opacity:1;stroke:#000000;stroke-width:1.5;stroke-linecap:butt;stroke-linejoin:miter;stroke-miterlimit:4;stroke-dasharray:none;stroke-opacity:1"
       d="m 45.684599,75.995754 c 12.48234,0.152761 28.50397,-2.820622 40.17485,-8.322321 0.99556,17.030755 -2.63614,33.067327 -5.21788,48.526797 -9.70851,-6.8405 -27.71922,-30.767182 -34.95697,-40.204476 z"
       sodipodi:nodetypes="cccc" />
    <path
       id="path893-6-7"
       style="fill:#dcdcdc;fill-opacity:1;stroke:#000000;stroke-width:1.5;stroke-linecap:butt;stroke-linejoin:miter;stroke-miterlimit:4;stroke-dasharray:none;stroke-opacity:1"
       d="m 55.409175,79.973317 c 8.037933,0.09837 18.354969,-1.816323 25.870365,-5.359111 0.641086,10.966859 -1.697529,21.293528 -3.360031,31.248534 C 71.667783,101.45785 60.06988,86.050409 55.409175,79.973317 Z"
       sodipodi:nodetypes="cccc" />
    <path
       id="path940"
       style="fill:#dcdcdc;fill-opacity:1;stroke:#000000;stroke-width:1.77398;stroke-linecap:butt;stroke-linejoin:miter;stroke-miterlimit:4;stroke-dasharray:none;stroke-opacity:1"
       d="m 19.557312,31.386684 c -0.12548,6.824292 2.78192,28.329732 7.80472,51.856968 4.95764,-0.481334 2.10265,-0.312796 4.82984,-1.028614 -2.83966,-12.956618 -9.07005,-43.233125 -12.63457,-50.828362 z"
       sodipodi:nodetypes="cccc" />
    <path
       id="path956"
       style="fill:#dcdcdc;fill-opacity:1;stroke:#000000;stroke-width:1.2907;stroke-linecap:butt;stroke-linejoin:miter;stroke-miterlimit:4;stroke-dasharray:none;stroke-opacity:1"
       d="m 38.534952,77.199463 c 2.31458,3.998358 -4.72366,5.726143 -6.9791,6.113597 -2.23771,0.47643 -12.86842,3.031411 -12.68813,-2.272249 4.53241,0.694355 16.50611,-2.181966 19.66723,-3.841341 z"
       sodipodi:nodetypes="cccc" />
    <rect
       style="fill:#282828;fill-opacity:1;stroke:#dcdcdc;stroke-width:1;stroke-linecap:round;stroke-miterlimit:4;stroke-dasharray:none;stroke-opacity:1"
       id="rect10-5"
       width="100"
       height="100"
       x="146.76624"
       y="0.56262118" />
    <path
       id="path975-3"
       style="fill:#282828;fill-opacity:1;stroke:#dcdcdc;stroke-width:1.36297;stroke-linecap:butt;stroke-linejoin:miter;stroke-miterlimit:4;stroke-dasharray:none;stroke-opacity:1"
       d="m 200.20293,73.643457 c -2.59737,3.302431 -5.91149,6.102001 -9.0918,8.851231 -3.53087,2.682819 -7.89479,1.621022 -11.53356,0.39548 -2.13927,-1.361072 -4.90263,-0.765619 -5.6173,2.268088 -0.13187,3.188445 3.36887,4.238665 5.61376,4.891145 3.67553,0.74188 10.66139,1.87442 14.42795,1.17342 4.50809,-2.16204 16.25562,-12.202319 18.74602,-18.85651 0.6854,-2.526734 -1.03193,-4.662644 -3.08913,-5.253649 -4.0535,-0.387136 -7.05026,2.625204 -9.45594,6.530795 z"
       sodipodi:nodetypes="ccccccccc" />
    <path
       id="path1100-5"
       style="fill:#282828;fill-opacity:1;stroke:#dcdcdc;stroke-width:1.38846;stroke-linecap:butt;stroke-linejoin:miter;stroke-miterlimit:4;stroke-dasharray:none;stroke-opacity:1"
       d="m 199.62044,94.157811 c -7.78176,-13.244588 -4.11315,-28.344544 7.35193,-30.628282 26.90177,-5.549773 26.84587,0.460359 23.86379,26.316162 -5.89509,8.16634 -22.31505,7.99536 -31.21572,4.31212 z"
       sodipodi:nodetypes="cccc" />
    <path
       id="path1084-6"
       style="fill:#282828;fill-opacity:1;stroke:#dcdcdc;stroke-width:1.5;stroke-linecap:butt;stroke-linejoin:miter;stroke-miterlimit:4;stroke-dasharray:none;stroke-opacity:1"
       d="m 209.19079,56.562372 c 1.16836,2.8936 -1.17255,6.330233 1.15182,8.929429 2.8943,2.299528 6.64256,-1.173965 6.7188,-3.930256 0.95896,-3.080435 -1.58316,-6.561468 -5.47483,-5.967966 -0.88454,0.07607 -1.80492,0.353195 -2.39579,0.968793 z" />
    <path
       id="path892-2"
       style="fill:#282828;fill-opacity:1;stroke:#dcdcdc;stroke-width:1.22928;stroke-linecap:butt;stroke-linejoin:miter;stroke-miterlimit:4;stroke-dasharray:none;stroke-opacity:1"
       d="m 223.3463,41.460241 c -3.40525,-8.040912 -13.52661,-8.522025 -18.6053,-2.517648 -3.42694,3.625967 -2.95928,8.71387 -2.46884,13.752024 0.97398,5.329912 5.18248,8.800615 11.48208,5.908098 3.37789,-1.918245 12.29768,-6.142398 11.79134,-13.679705 -0.28801,-1.450996 -1.13498,-2.695585 -2.19928,-3.462769 z"
       sodipodi:nodetypes="cccccc" />
    <path
       id="path857-9"
       style="fill:#282828;fill-opacity:1;stroke:#dcdcdc;stroke-width:1.565;stroke-linecap:butt;stroke-linejoin:miter;stroke-miterlimit:4;stroke-dasharray:none;stroke-opacity:1"
       d="m 206.60194,30.183631 c 2.71688,-6.331613 -3.88873,-4.037817 -4.56589,-10.235001 15.39998,-1.304707 27.05194,-3.415423 31.07275,28.150028 -6.77512,-0.602088 -3.61395,-3.75748 -10.84979,0.187572 -1.86854,-18.710355 -14.04384,-15.469368 -15.65707,-18.102599 z"
       sodipodi:nodetypes="ccccc" />
    <path
       id="path850-1"
       style="fill:#282828;fill-opacity:1;stroke:#dcdcdc;stroke-width:1.50042;stroke-linecap:butt;stroke-linejoin:miter;stroke-miterlimit:4;stroke-dasharray:none;stroke-opacity:1"
       d="m 201.98927,47.59958 c -0.33855,-3.26 1.30608,-9.424458 4.62326,-8.041412 1.98138,0.42504 -1.08408,10.22799 1.46283,10.065919 2.42122,-0.152238 3.34162,-8.95927 6.67183,-8.415366 5.78669,3.129788 -6.66529,14.396921 6.87498,17.480893 4.36298,1.054704 3.89904,-4.055213 4.10131,-7.989278 -0.30055,-14.895 -4.82455,-21.952088 -13.71129,-23.011564 -12.74708,-0.527984 -11.98184,20.185663 -10.02292,19.910808 z"
       sodipodi:nodetypes="cccccccc" />
    <path
       style="fill:#282828;fill-opacity:1;stroke:#dcdcdc;stroke-width:1.573;stroke-linecap:round;stroke-miterlimit:4;stroke-dasharray:none;stroke-opacity:1"
       id="path869-2"
       sodipodi:type="arc"
       sodipodi:cx="204.78447"
       sodipodi:cy="43.749203"
       sodipodi:rx="0.82645315"
       sodipodi:ry="1.0457062"
       sodipodi:start="4.6021889"
       sodipodi:end="4.5774925"
       sodipodi:open="true"
       sodipodi:arc-type="arc"
       d="m 204.69358,42.70984 a 0.82645315,1.0457062 0 0 1 0.91175,0.917944 0.82645315,1.0457062 0 0 1 -0.71983,1.159282 0.82645315,1.0457062 0 0 1 -0.92065,-0.903629 0.82645315,1.0457062 0 0 1 0.70847,-1.17044" />
    <path
       style="fill:#282828;fill-opacity:1;stroke:#dcdcdc;stroke-width:1.573;stroke-linecap:round;stroke-miterlimit:4;stroke-dasharray:none;stroke-opacity:1"
       id="path869-3-7"
       sodipodi:type="arc"
       sodipodi:cx="213.42719"
       sodipodi:cy="46.038322"
       sodipodi:rx="0.82645315"
       sodipodi:ry="1.0457062"
       sodipodi:start="4.6021889"
       sodipodi:end="4.5774925"
       sodipodi:open="true"
       sodipodi:arc-type="arc"
       d="m 213.33629,44.998959 a 0.82645315,1.0457062 0 0 1 0.91176,0.917945 0.82645315,1.0457062 0 0 1 -0.71984,1.159282 0.82645315,1.0457062 0 0 1 -0.92064,-0.903629 0.82645315,1.0457062 0 0 1 0.70847,-1.170441" />
    <path
       id="path951-0"
       style="fill:#282828;fill-opacity:1;stroke:#dcdcdc;stroke-width:1.581;stroke-linecap:butt;stroke-linejoin:miter;stroke-miterlimit:4;stroke-dasharray:none;stroke-opacity:1"
       d="m 211.94777,54.502615 c -2.36456,1.201817 -4.63491,2.137294 -6.85072,-1.358498 2.56975,0.342509 4.92078,0.965817 6.85072,1.358498 z"
       sodipodi:nodetypes="ccc" />
    <path
       id="path893-9"
       style="fill:#282828;fill-opacity:1;stroke:#dcdcdc;stroke-width:1.5;stroke-linecap:butt;stroke-linejoin:miter;stroke-miterlimit:4;stroke-dasharray:none;stroke-opacity:1"
       d="m 183.61403,72.978593 c 16.64919,0.203759 38.01917,-3.7622 53.58602,-11.100474 1.32789,22.715958 -3.51614,44.105871 -6.95971,64.726011 -12.9494,-9.12399 -36.97245,-41.037887 -46.62631,-53.625537 z"
       sodipodi:nodetypes="cccc" />
    <path
       id="path893-6-3"
       style="fill:#282828;fill-opacity:1;stroke:#dcdcdc;stroke-width:1.5;stroke-linecap:butt;stroke-linejoin:miter;stroke-miterlimit:4;stroke-dasharray:none;stroke-opacity:1"
       d="m 192.45082,76.558377 c 12.48234,0.15276 28.50397,-2.820622 40.17486,-8.322321 0.99555,17.030756 -2.63615,33.067324 -5.21788,48.526794 -9.70852,-6.8405 -27.71922,-30.76718 -34.95698,-40.204473 z"
       sodipodi:nodetypes="cccc" />
    <path
       id="path893-6-7-6"
       style="fill:#282828;fill-opacity:1;stroke:#dcdcdc;stroke-width:1.5;stroke-linecap:butt;stroke-linejoin:miter;stroke-miterlimit:4;stroke-dasharray:none;stroke-opacity:1"
       d="m 202.1754,80.53594 c 8.03794,0.09837 18.35497,-1.816322 25.87037,-5.359111 0.64108,10.96686 -1.69753,21.293532 -3.36004,31.248531 -6.25172,-4.40489 -17.84962,-19.812329 -22.51033,-25.88942 z"
       sodipodi:nodetypes="cccc" />
    <path
       id="path940-0"
       style="fill:#282828;fill-opacity:1;stroke:#dcdcdc;stroke-width:1.77398;stroke-linecap:butt;stroke-linejoin:miter;stroke-miterlimit:4;stroke-dasharray:none;stroke-opacity:1"
       d="m 166.32354,31.949307 c -0.12548,6.824292 2.78192,28.329731 7.80472,51.856968 4.95764,-0.481333 2.10265,-0.312796 4.82984,-1.028613 -2.83966,-12.956619 -9.07005,-43.233126 -12.63457,-50.828363 z"
       sodipodi:nodetypes="cccc" />
    <path
       id="path956-6"
       style="fill:#282828;fill-opacity:1;stroke:#dcdcdc;stroke-width:1.2907;stroke-linecap:butt;stroke-linejoin:miter;stroke-miterlimit:4;stroke-dasharray:none;stroke-opacity:1"
       d="m 185.30118,77.762086 c 2.31458,3.998359 -4.72366,5.726144 -6.9791,6.113597 -2.23771,0.47643 -12.86842,3.031408 -12.68813,-2.27225 4.53241,0.694357 16.50611,-2.181965 19.66723,-3.84134 z"
       sodipodi:nodetypes="cccc" />
  </g>
</svg>
