<?xml version="1.0" encoding="UTF-8" standalone="no"?>
<svg
   xmlns:dc="http://purl.org/dc/elements/1.1/"
   xmlns:cc="http://creativecommons.org/ns#"
   xmlns:rdf="http://www.w3.org/1999/02/22-rdf-syntax-ns#"
   xmlns:svg="http://www.w3.org/2000/svg"
   xmlns="http://www.w3.org/2000/svg"
   xmlns:sodipodi="http://sodipodi.sourceforge.net/DTD/sodipodi-0.dtd"
   xmlns:inkscape="http://www.inkscape.org/namespaces/inkscape"
   width="100mm"
   height="100mm"
   viewBox="0 0 100 100"
   version="1.1"
   id="svg8"
   inkscape:version="1.0.1 (3bc2e813f5, 2020-09-07, custom)"
   sodipodi:docname="team1_axe.svg">
  <defs
     id="defs2" />
  <sodipodi:namedview
     id="base"
     pagecolor="#ffffff"
     bordercolor="#666666"
     borderopacity="1.0"
     inkscape:pageopacity="0.0"
     inkscape:pageshadow="2"
     inkscape:zoom="0.7"
     inkscape:cx="304.77026"
     inkscape:cy="407.27766"
     inkscape:document-units="mm"
     inkscape:current-layer="layer1"
     inkscape:document-rotation="0"
     showgrid="false"
     inkscape:window-width="1920"
     inkscape:window-height="1028"
     inkscape:window-x="0"
     inkscape:window-y="0"
     inkscape:window-maximized="1"
     inkscape:snap-global="false" />
  <metadata
     id="metadata5">
    <rdf:RDF>
      <cc:Work
         rdf:about="">
        <dc:format>image/svg+xml</dc:format>
        <dc:type
           rdf:resource="http://purl.org/dc/dcmitype/StillImage" />
        <dc:title />
      </cc:Work>
    </rdf:RDF>
  </metadata>
  <g
     inkscape:label="Layer 1"
     inkscape:groupmode="layer"
     id="layer1">
    <rect
       style="fill:#dcdcdc;fill-opacity:1;stroke:none;stroke-width:1;stroke-linecap:round;stroke-miterlimit:4;stroke-dasharray:none;stroke-opacity:1"
       id="rect10"
       width="100"
       height="100"
       x="0"
       y="0" />
    <path
       id="path987"
       style="fill:#dcdcdc;fill-opacity:1;stroke:#000000;stroke-width:1.5;stroke-linecap:butt;stroke-linejoin:miter;stroke-miterlimit:4;stroke-dasharray:none;stroke-opacity:1"
       d="m 15.121175,55.160724 c 0.191812,6.528917 0.915843,29.289022 4.377143,28.049282 -0.602908,-3.250485 0.191579,-20.778402 -4.377166,-28.049284 z"
       sodipodi:nodetypes="cccc" />
    <path
       id="path975"
       style="fill:#dcdcdc;fill-opacity:1;stroke:#000000;stroke-width:1.5;stroke-linecap:butt;stroke-linejoin:miter;stroke-miterlimit:4;stroke-dasharray:none;stroke-opacity:1"
       d="m 49.536118,77.406621 c -3.852926,2.43877 -8.43517,4.18452 -12.847219,5.92034 -4.81114,1.57029 -9.723839,-0.71742 -13.739876,-2.95358 -2.20983,-1.93341 -5.620021,-2.15742 -7.181892,0.56627 -0.908832,3.04171 2.985286,5.0686 5.487385,6.3481 4.173719,1.7796 12.172,4.89393 16.794094,5.30612 5.844438,-0.78462 22.114654,-7.08546 26.632366,-12.79277 1.407539,-2.24245 -0.120118,-4.80228 -2.414654,-5.96811 -4.704688,-1.54625 -8.961684,0.4968 -12.730204,3.57363 z"
       sodipodi:nodetypes="ccccccccc" />
    <path
       id="path1100"
       style="fill:#dcdcdc;fill-opacity:1;stroke:#000000;stroke-width:1.5;stroke-linecap:butt;stroke-linejoin:miter;stroke-miterlimit:4;stroke-dasharray:none;stroke-opacity:1"
       d="m 54.143647,100.95547 c -9.111355,-13.202292 -4.815928,-28.254029 8.608084,-30.530473 31.498198,-5.532049 31.432754,0.458889 27.941146,26.232123 -6.902323,8.14029 -26.127794,7.96985 -36.54923,4.29835 z"
       sodipodi:nodetypes="cccc" />
    <path
       id="path1084"
       style="fill:#dcdcdc;fill-opacity:1;stroke:#000000;stroke-width:1.5;stroke-linecap:butt;stroke-linejoin:miter;stroke-miterlimit:4;stroke-dasharray:none;stroke-opacity:1"
       d="m 62.953728,63.408089 c 1.16836,2.893598 -1.17255,6.330231 1.15182,8.929428 2.8943,2.299527 6.64256,-1.173966 6.7188,-3.930257 0.95896,-3.080435 -1.58316,-6.561468 -5.47483,-5.967965 -0.88454,0.07607 -1.80492,0.353195 -2.39579,0.968794 z" />
    <path
       id="path892"
       style="fill:#dcdcdc;fill-opacity:1;stroke:#000000;stroke-width:1.5;stroke-linecap:butt;stroke-linejoin:miter;stroke-miterlimit:4;stroke-dasharray:none;stroke-opacity:1"
       d="M 80.393071,43.428402 C 76.246484,33.596367 63.921693,33.008082 57.737362,40.349945 53.56438,44.783601 52.839365,52.382312 55.380719,58.156749 57.748756,64.516754 63.896003,68.302918 69.620448,66.619956 76.97873,65.060865 83.687703,56.878763 83.071141,47.662508 82.720424,45.8883 81.689065,44.366479 80.393071,43.428402 Z" />
    <path
       id="path855"
       style="fill:#dcdcdc;fill-opacity:1;stroke:#000000;stroke-width:1.5;stroke-linecap:butt;stroke-linejoin:miter;stroke-miterlimit:4;stroke-dasharray:none;stroke-opacity:1"
       d="m 42.440513,38.590264 c 5.127901,10.26161 40.988275,13.702908 55.762575,1.222814 C 91.334013,25.172643 46.787079,28.764404 42.440513,38.590264 Z"
       sodipodi:nodetypes="ccc" />
    <path
       id="path880"
       style="fill:#dcdcdc;fill-opacity:1;stroke:#000000;stroke-width:1.5;stroke-linecap:butt;stroke-linejoin:miter;stroke-miterlimit:4;stroke-dasharray:none;stroke-opacity:1"
       d="m 58.59785,37.407343 c 6.68634,5.056388 18.236832,4.140955 23.172065,-0.58801 -1.30802,-9.493784 7.349121,-18.069295 6.736189,-22.562768 C 69.502723,12.78637 63.179666,27.280814 58.59785,37.407343 Z"
       sodipodi:nodetypes="cccc" />
    <path
       id="path914"
       style="fill:none;stroke:#000000;stroke-width:1.5;stroke-linecap:butt;stroke-linejoin:miter;stroke-miterlimit:4;stroke-dasharray:none;stroke-opacity:1"
       d="m 57.191459,50.11999 c 0.865578,1.752547 4.645565,2.265628 5.023912,0.616506 0.113645,-1.253377 -3.535847,-0.940417 -5.023912,-0.616506 z"
       sodipodi:nodetypes="ccc" />
    <path
       id="path914-3"
       style="fill:none;stroke:#000000;stroke-width:1.5;stroke-linecap:butt;stroke-linejoin:miter;stroke-miterlimit:4;stroke-dasharray:none;stroke-opacity:1"
       d="m 71.411056,53.312103 c -0.865578,-1.752547 -4.645588,-2.265628 -5.0239,-0.616507 -0.113645,1.253377 3.535812,0.940418 5.0239,0.616507 z"
       sodipodi:nodetypes="ccc" />
    <path
       id="path951"
       style="fill:none;stroke:#000000;stroke-width:1.5;stroke-linecap:butt;stroke-linejoin:miter;stroke-miterlimit:4;stroke-dasharray:none;stroke-opacity:1"
       d="m 59.853475,58.781892 c 2.182923,2.538546 4.833886,6.233873 8.175869,2.812513 -3.482425,-1.434144 -4.59544,-2.580752 -8.175869,-2.812513 z"
       sodipodi:nodetypes="ccc" />
    <path
       style="fill:#dcdcdc;fill-opacity:1;stroke:#000000;stroke-width:1.5;stroke-linecap:round;stroke-miterlimit:4;stroke-dasharray:none;stroke-opacity:1"
       id="path973"
       sodipodi:type="arc"
       sodipodi:cx="74.61586"
       sodipodi:cy="94.951012"
       sodipodi:rx="25.278786"
       sodipodi:ry="21.572359"
       sodipodi:start="4.6021889"
       sodipodi:end="4.5774925"
       sodipodi:open="true"
       sodipodi:arc-type="arc"
       d="M 71.835771,73.509508 A 25.278786,21.572359 0 0 1 99.723664,92.446209 25.278786,21.572359 0 0 1 77.705984,116.36159 25.278786,21.572359 0 0 1 49.546213,97.720195 25.278786,21.572359 0 0 1 71.216173,73.574632" />
    <path
       sodipodi:type="star"
       style="fill:#dcdcdc;fill-opacity:1;stroke:#000000;stroke-width:0.6389857;stroke-linecap:round;stroke-miterlimit:4;stroke-dasharray:none;stroke-opacity:1"
       id="path1006"
       sodipodi:sides="5"
       sodipodi:cx="123.5696"
       sodipodi:cy="54.443485"
       sodipodi:r1="1.0402492"
       sodipodi:r2="0.52012455"
       sodipodi:arg1="0.91178357"
       sodipodi:arg2="1.5401021"
       inkscape:flatsided="false"
       inkscape:rounded="0"
       inkscape:randomized="0"
       d="m 124.20659,55.265903 -0.62102,-0.302538 -0.60129,0.340068 0.0958,-0.684115 -0.50923,-0.466774 0.68024,-0.120268 0.28657,-0.62855 0.32459,0.609785 0.68634,0.07831 -0.47964,0.497136 z"
       inkscape:transform-center-x="0.023166087"
       inkscape:transform-center-y="-0.21102765"
       transform="matrix(2.3477747,0,0,2.3471661,-263.38478,-93.327212)" />
    <path
       sodipodi:type="star"
       style="fill:#dcdcdc;fill-opacity:1;stroke:#000000;stroke-width:0.6389857;stroke-linecap:round;stroke-miterlimit:4;stroke-dasharray:none;stroke-opacity:1"
       id="path1008"
       sodipodi:sides="5"
       sodipodi:cx="125.65245"
       sodipodi:cy="44.54113"
       sodipodi:r1="1.2092404"
       sodipodi:r2="0.6046201"
       sodipodi:arg1="1.1471095"
       sodipodi:arg2="1.7754281"
       inkscape:flatsided="false"
       inkscape:rounded="0"
       inkscape:randomized="0"
       d="m 126.1496,45.643449 -0.62001,-0.510314 -0.77188,0.221446 0.29374,-0.747361 -0.44913,-0.665668 0.80156,0.04842 0.4943,-0.632852 0.20164,0.777286 0.75463,0.274545 -0.67694,0.431969 z"
       inkscape:transform-center-x="0.15024075"
       inkscape:transform-center-y="0.12418932"
       transform="matrix(1.9432773,1.3171255,-1.3174669,1.9427736,-170.23595,-213.5978)" />
    <path
       sodipodi:type="star"
       style="fill:#dcdcdc;fill-opacity:1;stroke:#000000;stroke-width:0.6389857;stroke-linecap:round;stroke-miterlimit:4;stroke-dasharray:none;stroke-opacity:1"
       id="path1010"
       sodipodi:sides="5"
       sodipodi:cx="122.31255"
       sodipodi:cy="58.28735"
       sodipodi:r1="1.1403736"
       sodipodi:r2="0.57018679"
       sodipodi:arg1="0.38234055"
       sodipodi:arg2="1.0106591"
       inkscape:flatsided="false"
       inkscape:rounded="0"
       inkscape:randomized="0"
       d="m 123.37059,58.712815 -0.75509,0.05759 -0.38064,0.654672 -0.2881,-0.700338 -0.74025,-0.1597 0.57703,-0.490419 -0.0769,-0.753372 0.64473,0.397243 0.69274,-0.30591 -0.17856,0.735928 z"
       inkscape:transform-center-x="0.056370469"
       inkscape:transform-center-y="0.20140595"
       transform="matrix(2.3477747,0,0,2.3471661,-265.27468,-92.010144)" />
    <path
       style="fill:#dcdcdc;fill-opacity:1;stroke:#000000;stroke-width:1.5;stroke-linecap:round;stroke-miterlimit:4;stroke-dasharray:none;stroke-opacity:1"
       id="path973-6"
       sodipodi:type="arc"
       sodipodi:cx="75.019394"
       sodipodi:cy="95.793144"
       sodipodi:rx="12.48622"
       sodipodi:ry="10.524102"
       sodipodi:start="4.6021889"
       sodipodi:end="4.5774925"
       sodipodi:open="true"
       sodipodi:arc-type="arc"
       d="M 73.646195,85.33288 A 12.48622,10.524102 0 0 1 87.42116,94.571173 12.48622,10.524102 0 0 1 76.545732,106.23832 12.48622,10.524102 0 0 1 62.636476,97.144094 12.48622,10.524102 0 0 1 73.34015,85.364651" />
    <path
       sodipodi:type="star"
       style="fill:#dcdcdc;fill-opacity:1;stroke:#000000;stroke-width:0.6389857;stroke-linecap:round;stroke-miterlimit:4;stroke-dasharray:none;stroke-opacity:1"
       id="path1010-6"
       sodipodi:sides="5"
       sodipodi:cx="122.31255"
       sodipodi:cy="58.28735"
       sodipodi:r1="1.1403736"
       sodipodi:r2="0.57018679"
       sodipodi:arg1="0.38234055"
       sodipodi:arg2="1.0106591"
       inkscape:flatsided="false"
       inkscape:rounded="0"
       inkscape:randomized="0"
       d="m 123.37059,58.712815 -0.75509,0.05759 -0.38064,0.654672 -0.2881,-0.700338 -0.74025,-0.1597 0.57703,-0.490419 -0.0769,-0.753372 0.64473,0.397243 0.69274,-0.30591 -0.17856,0.735928 z"
       inkscape:transform-center-x="0.056370469"
       inkscape:transform-center-y="0.20140595"
       transform="matrix(2.3477747,0,0,2.3471661,-271.9536,-83.873563)" />
    <path
       sodipodi:type="star"
       style="fill:#dcdcdc;fill-opacity:1;stroke:#000000;stroke-width:0.6389857;stroke-linecap:round;stroke-miterlimit:4;stroke-dasharray:none;stroke-opacity:1"
       id="path1010-2"
       sodipodi:sides="5"
       sodipodi:cx="122.31255"
       sodipodi:cy="58.28735"
       sodipodi:r1="1.1403736"
       sodipodi:r2="0.57018679"
       sodipodi:arg1="0.38234055"
       sodipodi:arg2="1.0106591"
       inkscape:flatsided="false"
       inkscape:rounded="0"
       inkscape:randomized="0"
       d="m 123.37059,58.712815 -0.75509,0.05759 -0.38064,0.654672 -0.2881,-0.700338 -0.74025,-0.1597 0.57703,-0.490419 -0.0769,-0.753372 0.64473,0.397243 0.69274,-0.30591 -0.17856,0.735928 z"
       inkscape:transform-center-x="0.056370469"
       inkscape:transform-center-y="0.20140595"
       transform="matrix(2.3477747,0,0,2.3471661,-260.72866,-117.23312)" />
    <path
       id="path43"
       style="fill:#dcdcdc;fill-opacity:1;stroke:#282828;stroke-width:1.66018;stroke-linecap:butt;stroke-linejoin:miter;stroke-miterlimit:4;stroke-dasharray:none;stroke-opacity:1"
       d="m 193.82755,28.183598 c 3.51729,-8.832306 28.65913,-9.356683 30.83132,-2.692825 3.11387,10.635728 4.07499,33.793698 -2.02117,37.545678 -4.29448,3.053655 -22.46754,2.773428 -30.47835,0.821249 -8.3532,-4.225345 -0.97438,-30.609263 1.6682,-35.674102 z"
       sodipodi:nodetypes="ccccc" />
    <path
       id="path43-3"
       style="fill:#dcdcdc;fill-opacity:1;stroke:#282828;stroke-width:1.503;stroke-linecap:butt;stroke-linejoin:miter;stroke-miterlimit:4;stroke-dasharray:none;stroke-opacity:1"
       d="m 219.88935,47.08842 c -3.24343,2.833468 -26.42771,3.001691 -28.43078,0.863878 -2.87141,-3.412018 -3.7577,-10.841262 1.86381,-12.044923 3.96011,-0.979634 20.7182,-0.889736 28.10528,-0.263463 7.70281,1.355521 0.89852,9.819672 -1.53831,11.444508 z"
       sodipodi:nodetypes="ccccc" />
    <path
       id="path43-3-6"
       style="fill:#dcdcdc;fill-opacity:1;stroke:#282828;stroke-width:1.565;stroke-linecap:butt;stroke-linejoin:miter;stroke-miterlimit:4;stroke-dasharray:none;stroke-opacity:1"
       d="m 213.44392,41.922764 c -2.29694,0.258569 -18.71571,0.27392 -20.13427,0.07883 -2.03348,-0.311364 -2.66114,-0.98932 1.31993,-1.09916 2.80449,-0.08939 14.67234,-0.0812 19.90375,-0.02404 5.45502,0.123699 0.63632,0.896096 -1.08941,1.044371 z"
       sodipodi:nodetypes="ccccc" />
    <path
       id="path913"
       style="fill:#dcdcdc;fill-opacity:1;stroke:#000000;stroke-width:1.565;stroke-linecap:butt;stroke-linejoin:miter;stroke-miterlimit:4;stroke-dasharray:none;stroke-opacity:1"
       d="m 134.33368,39.405894 c -2.36237,9.818674 13.27438,24.46518 27.495,23.193991 -7.18278,-8.688519 0.89268,-22.672296 -1.54028,-25.524976 -3.22334,-2.59435 -13.83507,10.484067 -25.95472,2.330985 z"
       sodipodi:nodetypes="cccc" />
    <path
       id="path913-7"
       style="fill:#dcdcdc;fill-opacity:1;stroke:#000000;stroke-width:1.565;stroke-linecap:butt;stroke-linejoin:miter;stroke-miterlimit:4;stroke-dasharray:none;stroke-opacity:1"
       d="m 175.74296,48.278223 c 2.36237,-9.818675 -13.27438,-24.465178 -27.495,-23.193993 7.18278,8.68852 -0.89268,22.672298 1.54028,25.524978 3.22334,2.59435 13.83507,-10.484068 25.95472,-2.330985 z"
       sodipodi:nodetypes="cccc" />
    <path
       id="path903"
       style="fill:#dcdcdc;fill-opacity:1;stroke:#000000;stroke-width:1.55189;stroke-linecap:butt;stroke-linejoin:miter;stroke-miterlimit:4;stroke-dasharray:none;stroke-opacity:1"
       d="m 141.70879,32.655613 c 3.83344,-1.831727 77.07053,67.943277 74.85246,70.392887 -2.42199,1.81495 -77.06493,-68.413742 -74.85246,-70.392887 z"
       sodipodi:nodetypes="ccc" />
  </g>
</svg>
