<?xml version="1.0" encoding="UTF-8" standalone="no"?>
<svg
   xmlns:dc="http://purl.org/dc/elements/1.1/"
   xmlns:cc="http://creativecommons.org/ns#"
   xmlns:rdf="http://www.w3.org/1999/02/22-rdf-syntax-ns#"
   xmlns:svg="http://www.w3.org/2000/svg"
   xmlns="http://www.w3.org/2000/svg"
   xmlns:sodipodi="http://sodipodi.sourceforge.net/DTD/sodipodi-0.dtd"
   xmlns:inkscape="http://www.inkscape.org/namespaces/inkscape"
   width="100mm"
   height="100mm"
   viewBox="0 0 100 100"
   version="1.1"
   id="svg8"
   inkscape:version="1.0.1 (3bc2e813f5, 2020-09-07, custom)"
   sodipodi:docname="team1_spear.svg">
  <defs
     id="defs2" />
  <sodipodi:namedview
     id="base"
     pagecolor="#ffffff"
     bordercolor="#666666"
     borderopacity="1.0"
     inkscape:pageopacity="0.0"
     inkscape:pageshadow="2"
     inkscape:zoom="0.9899495"
     inkscape:cx="106.19146"
     inkscape:cy="62.724616"
     inkscape:document-units="mm"
     inkscape:current-layer="layer1"
     inkscape:document-rotation="0"
     showgrid="false"
     inkscape:window-width="1920"
     inkscape:window-height="1028"
     inkscape:window-x="0"
     inkscape:window-y="0"
     inkscape:window-maximized="1"
     inkscape:snap-global="false"
     inkscape:snap-center="true"
     inkscape:snap-midpoints="true" />
  <metadata
     id="metadata5">
    <rdf:RDF>
      <cc:Work
         rdf:about="">
        <dc:format>image/svg+xml</dc:format>
        <dc:type
           rdf:resource="http://purl.org/dc/dcmitype/StillImage" />
        <dc:title />
      </cc:Work>
    </rdf:RDF>
  </metadata>
  <g
     inkscape:label="Layer 1"
     inkscape:groupmode="layer"
     id="layer1">
    <rect
       style="fill:#dcdcdc;fill-opacity:1;stroke:none;stroke-width:1;stroke-linecap:round;stroke-miterlimit:4;stroke-dasharray:none;stroke-opacity:1"
       id="rect10"
       width="100"
       height="100"
       x="0"
       y="0" />
    <path
       id="path905-6-0-3"
       style="fill:#dcdcdc;fill-opacity:1;stroke:#000000;stroke-width:1.5;stroke-linecap:butt;stroke-linejoin:miter;stroke-miterlimit:4;stroke-dasharray:none;stroke-opacity:1"
       d="m 47.325675,80.998621 c 6.293004,-5.620106 11.730777,-12.585705 19.54466,-16.143493 8.114246,-1.089037 5.271022,10.900081 -1.210896,10.665772 -6.66884,2.954704 -12.575913,16.732525 -20.432091,11.288289 -1.436345,-2.097232 -0.420466,-5.263475 2.098327,-5.810568 z" />
    <path
       id="path1100-3-6"
       style="fill:#dcdcdc;fill-opacity:1;stroke:#000000;stroke-width:1.32731;stroke-linecap:butt;stroke-linejoin:miter;stroke-miterlimit:4;stroke-dasharray:none;stroke-opacity:1"
       d="m 62.963884,100.70034 c -5.859581,-16.345283 -3.097153,-34.980303 5.535923,-37.798693 20.256736,-6.84904 20.214636,0.56813 17.969146,32.47706 -4.43892,10.078203 -16.802958,9.867193 -23.505069,5.321633 z"
       sodipodi:nodetypes="cccc" />
    <rect
       style="fill:#dcdcdc;fill-opacity:1;stroke:#000000;stroke-width:1.565;stroke-linecap:round;stroke-miterlimit:4;stroke-dasharray:none;stroke-opacity:1"
       id="rect1047"
       width="4.5206423"
       height="117.0467"
       x="-15.101905"
       y="28.287025"
       transform="matrix(0.68714448,-0.72652079,0.72570263,0.68800849,0,0)" />
    <path
       id="path905-9-5"
       style="fill:#dcdcdc;fill-opacity:1;stroke:#000000;stroke-width:1.5;stroke-linecap:butt;stroke-linejoin:miter;stroke-miterlimit:4;stroke-dasharray:none;stroke-opacity:1"
       d="M 44.800529,83.517201 C 43.857606,75.626083 41.4299,67.707202 42.874746,59.693089 c 3.492772,-6.963104 11.145026,1.531127 7.510451,6.517547 -1.295614,6.797071 6.091122,18.639009 -2.259998,21.99106 -2.369412,0.03814 -4.24901,-2.41405 -3.32467,-4.684495 z" />
    <path
       id="path905-6-0-7"
       style="fill:#dcdcdc;fill-opacity:1;stroke:#000000;stroke-width:1.5;stroke-linecap:butt;stroke-linejoin:miter;stroke-miterlimit:4;stroke-dasharray:none;stroke-opacity:1"
       d="M 13.273744,219.83036 C 9.4704872,212.28533 6.9531062,203.80122 0.98356917,197.61843 c -7.14895397,-3.99383 -8.87599697,8.21614 -2.76257597,10.37811 5.124577,5.20065 5.594684,20.20156 14.8856358,18.01594 2.10041,-1.4258 2.310044,-4.74767 0.167115,-6.18212 z" />
    <path
       id="path1100-3"
       style="fill:#dcdcdc;fill-opacity:1;stroke:#000000;stroke-width:1.5;stroke-linecap:butt;stroke-linejoin:miter;stroke-miterlimit:4;stroke-dasharray:none;stroke-opacity:1"
       d="m 1.7743302,231.9933 c 7.513633,-16.27976 3.971424,-34.84007 -7.098602,-37.64716 -25.9748302,-6.82158 -25.9208472,0.56586 -23.0415082,32.34686 5.691954,10.0378 21.5461282,9.82763 30.1401102,5.3003 z"
       sodipodi:nodetypes="cccc" />
    <path
       id="path905-6-0"
       style="fill:#dcdcdc;fill-opacity:1;stroke:#000000;stroke-width:1.5;stroke-linecap:butt;stroke-linejoin:miter;stroke-miterlimit:4;stroke-dasharray:none;stroke-opacity:1"
       d="m -50.922867,197.94398 c 8.183004,-2.05568 16.233285,-5.70012 24.805748,-5.2231 7.692212,2.80298 -0.392601,12.10129 -6.024678,8.88416 -7.278309,-0.4795 -18.907206,8.98044 -23.337403,0.51093 -0.298376,-2.52437 2.07148,-4.85694 4.556333,-4.17199 z" />
    <path
       id="path905-6-7"
       style="fill:#dcdcdc;fill-opacity:1;stroke:#000000;stroke-width:1.5;stroke-linecap:butt;stroke-linejoin:miter;stroke-miterlimit:4;stroke-dasharray:none;stroke-opacity:1"
       d="m 290.64741,7.7376182 c -3.16823,5.9035598 -7.52186,11.3825118 -8.83519,18.1004008 0.63234,6.509602 9.3036,2.150348 7.95246,-2.852033 1.05826,-5.718821 10.54609,-12.782693 4.95508,-17.9217048 -1.86637,-0.742274 -4.10849,0.615212 -4.07235,2.673337 z" />
    <path
       id="path905-6"
       style="fill:#dcdcdc;fill-opacity:1;stroke:#000000;stroke-width:1.5;stroke-linecap:butt;stroke-linejoin:miter;stroke-miterlimit:4;stroke-dasharray:none;stroke-opacity:1"
       d="m 326.63055,3.3403612 c 4.46693,4.993621 9.98627,9.2959368 12.84163,15.5170138 0.91524,6.475888 -8.53765,4.276621 -8.4,-0.90319 -2.37264,-5.309935 -13.25486,-9.9461538 -9.0282,-16.2552118 1.63965,-1.16011296 4.138,-0.367585 4.58657,1.641388 z" />
    <path
       id="path987"
       style="fill:#dcdcdc;fill-opacity:1;stroke:#000000;stroke-width:1.5;stroke-linecap:butt;stroke-linejoin:miter;stroke-miterlimit:4;stroke-dasharray:none;stroke-opacity:1"
       d="m 181.33138,62.202152 c 0.19181,6.528917 0.91585,29.289018 4.37715,28.049278 -0.60291,-3.25048 0.19157,-20.778398 -4.37717,-28.04928 z"
       sodipodi:nodetypes="cccc" />
    <path
       id="path975"
       style="fill:#dcdcdc;fill-opacity:1;stroke:#000000;stroke-width:1.5;stroke-linecap:butt;stroke-linejoin:miter;stroke-miterlimit:4;stroke-dasharray:none;stroke-opacity:1"
       d="m 215.74633,84.44805 c -3.85293,2.43877 -8.43517,4.18452 -12.84722,5.92034 -4.81114,1.57029 -9.72384,-0.71742 -13.73988,-2.95358 -2.20983,-1.93341 -5.62002,-2.15742 -7.18189,0.56627 -0.90883,3.04171 2.98528,5.0686 5.48738,6.3481 4.17372,1.7796 12.172,4.89393 16.7941,5.30612 5.84444,-0.78462 22.11465,-7.08546 26.63236,-12.79277 1.40754,-2.24245 -0.12011,-4.802281 -2.41465,-5.968111 -4.70469,-1.54625 -8.96168,0.4968 -12.7302,3.573631 z"
       sodipodi:nodetypes="ccccccccc" />
    <path
       id="path1100"
       style="fill:#dcdcdc;fill-opacity:1;stroke:#000000;stroke-width:1.5;stroke-linecap:butt;stroke-linejoin:miter;stroke-miterlimit:4;stroke-dasharray:none;stroke-opacity:1"
       d="m 220.35385,107.9969 c -9.11135,-13.20229 -4.81592,-28.254031 8.60809,-30.530475 31.4982,-5.532049 31.43275,0.458889 27.94114,26.232125 -6.90232,8.14029 -26.12779,7.96985 -36.54923,4.29835 z"
       sodipodi:nodetypes="cccc" />
    <path
       id="path1084"
       style="fill:#dcdcdc;fill-opacity:1;stroke:#000000;stroke-width:1.5;stroke-linecap:butt;stroke-linejoin:miter;stroke-miterlimit:4;stroke-dasharray:none;stroke-opacity:1"
       d="m 229.16394,70.449517 c 1.16836,2.893598 -1.17255,6.330231 1.15182,8.929428 2.8943,2.299527 6.64256,-1.173966 6.7188,-3.930257 0.95896,-3.080435 -1.58316,-6.561468 -5.47483,-5.967965 -0.88454,0.07607 -1.80492,0.353195 -2.39579,0.968794 z" />
    <path
       id="path892"
       style="fill:#dcdcdc;fill-opacity:1;stroke:#000000;stroke-width:1.5;stroke-linecap:butt;stroke-linejoin:miter;stroke-miterlimit:4;stroke-dasharray:none;stroke-opacity:1"
       d="m 246.60328,50.46983 c -4.14659,-9.832035 -16.47138,-10.42032 -22.65571,-3.078457 -4.17298,4.433656 -4.898,12.032367 -2.35664,17.806804 2.36803,6.360005 8.51528,10.146169 14.23973,8.463207 7.35828,-1.559091 14.06725,-9.741193 13.45069,-18.957448 -0.35072,-1.774208 -1.38208,-3.296029 -2.67807,-4.234106 z" />
    <path
       id="path855"
       style="fill:#dcdcdc;fill-opacity:1;stroke:#000000;stroke-width:1.5;stroke-linecap:butt;stroke-linejoin:miter;stroke-miterlimit:4;stroke-dasharray:none;stroke-opacity:1"
       d="m 208.65072,45.631692 c 5.1279,10.26161 40.98828,13.702908 55.76258,1.222814 -6.86908,-14.640435 -51.41601,-11.048674 -55.76258,-1.222814 z"
       sodipodi:nodetypes="ccc" />
    <path
       id="path880"
       style="fill:#dcdcdc;fill-opacity:1;stroke:#000000;stroke-width:1.5;stroke-linecap:butt;stroke-linejoin:miter;stroke-miterlimit:4;stroke-dasharray:none;stroke-opacity:1"
       d="m 224.80806,44.448771 c 6.68634,5.056388 18.23683,4.140955 23.17206,-0.58801 -1.30802,-9.493784 7.34912,-18.069296 6.73619,-22.562769 -19.00338,-1.470195 -25.32644,13.02425 -29.90825,23.150779 z"
       sodipodi:nodetypes="cccc" />
    <path
       id="path914"
       style="fill:none;stroke:#000000;stroke-width:1.5;stroke-linecap:butt;stroke-linejoin:miter;stroke-miterlimit:4;stroke-dasharray:none;stroke-opacity:1"
       d="m 223.40167,57.161418 c 0.86557,1.752547 4.64556,2.265628 5.02391,0.616506 0.11364,-1.253377 -3.53585,-0.940417 -5.02391,-0.616506 z"
       sodipodi:nodetypes="ccc" />
    <path
       id="path914-3"
       style="fill:none;stroke:#000000;stroke-width:1.5;stroke-linecap:butt;stroke-linejoin:miter;stroke-miterlimit:4;stroke-dasharray:none;stroke-opacity:1"
       d="m 237.62126,60.353531 c -0.86557,-1.752547 -4.64558,-2.265628 -5.0239,-0.616507 -0.11364,1.253377 3.53582,0.940418 5.0239,0.616507 z"
       sodipodi:nodetypes="ccc" />
    <path
       id="path951"
       style="fill:none;stroke:#000000;stroke-width:1.5;stroke-linecap:butt;stroke-linejoin:miter;stroke-miterlimit:4;stroke-dasharray:none;stroke-opacity:1"
       d="m 226.06368,65.82332 c 2.18293,2.538546 4.83389,6.233873 8.17587,2.812513 -3.48242,-1.434144 -4.59544,-2.580752 -8.17587,-2.812513 z"
       sodipodi:nodetypes="ccc" />
    <path
       style="fill:#dcdcdc;fill-opacity:1;stroke:#000000;stroke-width:1.5;stroke-linecap:round;stroke-miterlimit:4;stroke-dasharray:none;stroke-opacity:1"
       id="path973"
       sodipodi:type="arc"
       sodipodi:cx="240.82607"
       sodipodi:cy="101.99244"
       sodipodi:rx="25.278786"
       sodipodi:ry="21.572359"
       sodipodi:start="4.6021889"
       sodipodi:end="4.5774925"
       sodipodi:open="true"
       sodipodi:arc-type="arc"
       d="m 238.04598,80.550936 a 25.278786,21.572359 0 0 1 27.88789,18.9367 25.278786,21.572359 0 0 1 -22.01768,23.915374 25.278786,21.572359 0 0 1 -28.15977,-18.64139 25.278786,21.572359 0 0 1 21.66996,-24.145561" />
    <path
       sodipodi:type="star"
       style="fill:#dcdcdc;fill-opacity:1;stroke:#000000;stroke-width:0.638986;stroke-linecap:round;stroke-miterlimit:4;stroke-dasharray:none;stroke-opacity:1"
       id="path1006"
       sodipodi:sides="5"
       sodipodi:cx="123.5696"
       sodipodi:cy="54.443485"
       sodipodi:r1="1.0402492"
       sodipodi:r2="0.52012455"
       sodipodi:arg1="0.91178357"
       sodipodi:arg2="1.5401021"
       inkscape:flatsided="false"
       inkscape:rounded="0"
       inkscape:randomized="0"
       d="m 124.20659,55.265903 -0.62102,-0.302538 -0.60129,0.340068 0.0958,-0.684115 -0.50923,-0.466774 0.68024,-0.120268 0.28657,-0.62855 0.32459,0.609785 0.68634,0.07831 -0.47964,0.497136 z"
       inkscape:transform-center-x="0.023166087"
       inkscape:transform-center-y="-0.21102765"
       transform="matrix(2.3477747,0,0,2.3471661,-97.174584,-86.285782)" />
    <path
       sodipodi:type="star"
       style="fill:#dcdcdc;fill-opacity:1;stroke:#000000;stroke-width:0.638986;stroke-linecap:round;stroke-miterlimit:4;stroke-dasharray:none;stroke-opacity:1"
       id="path1008"
       sodipodi:sides="5"
       sodipodi:cx="125.65245"
       sodipodi:cy="44.54113"
       sodipodi:r1="1.2092404"
       sodipodi:r2="0.6046201"
       sodipodi:arg1="1.1471095"
       sodipodi:arg2="1.7754281"
       inkscape:flatsided="false"
       inkscape:rounded="0"
       inkscape:randomized="0"
       d="m 126.1496,45.643449 -0.62001,-0.510314 -0.77188,0.221446 0.29374,-0.747361 -0.44913,-0.665668 0.80156,0.04842 0.4943,-0.632852 0.20164,0.777286 0.75463,0.274545 -0.67694,0.431969 z"
       inkscape:transform-center-x="0.15024075"
       inkscape:transform-center-y="0.12418932"
       transform="matrix(1.9432773,1.3171255,-1.3174669,1.9427736,-4.0257475,-206.55637)" />
    <path
       sodipodi:type="star"
       style="fill:#dcdcdc;fill-opacity:1;stroke:#000000;stroke-width:0.638986;stroke-linecap:round;stroke-miterlimit:4;stroke-dasharray:none;stroke-opacity:1"
       id="path1010"
       sodipodi:sides="5"
       sodipodi:cx="122.31255"
       sodipodi:cy="58.28735"
       sodipodi:r1="1.1403736"
       sodipodi:r2="0.57018679"
       sodipodi:arg1="0.38234055"
       sodipodi:arg2="1.0106591"
       inkscape:flatsided="false"
       inkscape:rounded="0"
       inkscape:randomized="0"
       d="m 123.37059,58.712815 -0.75509,0.05759 -0.38064,0.654672 -0.2881,-0.700338 -0.74025,-0.1597 0.57703,-0.490419 -0.0769,-0.753372 0.64473,0.397243 0.69274,-0.30591 -0.17856,0.735928 z"
       inkscape:transform-center-x="0.056370469"
       inkscape:transform-center-y="0.20140595"
       transform="matrix(2.3477747,0,0,2.3471661,-99.064484,-84.968712)" />
    <path
       style="fill:#dcdcdc;fill-opacity:1;stroke:#000000;stroke-width:1.5;stroke-linecap:round;stroke-miterlimit:4;stroke-dasharray:none;stroke-opacity:1"
       id="path973-6"
       sodipodi:type="arc"
       sodipodi:cx="241.2296"
       sodipodi:cy="102.83456"
       sodipodi:rx="12.48622"
       sodipodi:ry="10.524102"
       sodipodi:start="4.6021889"
       sodipodi:end="4.5774925"
       sodipodi:open="true"
       sodipodi:arc-type="arc"
       d="m 239.8564,92.374292 a 12.48622,10.524102 0 0 1 13.77496,9.238298 12.48622,10.524102 0 0 1 -10.87542,11.66714 12.48622,10.524102 0 0 1 -13.90926,-9.09422 12.48622,10.524102 0 0 1 10.70368,-11.779447" />
    <path
       sodipodi:type="star"
       style="fill:#dcdcdc;fill-opacity:1;stroke:#000000;stroke-width:0.638986;stroke-linecap:round;stroke-miterlimit:4;stroke-dasharray:none;stroke-opacity:1"
       id="path1010-6"
       sodipodi:sides="5"
       sodipodi:cx="122.31255"
       sodipodi:cy="58.28735"
       sodipodi:r1="1.1403736"
       sodipodi:r2="0.57018679"
       sodipodi:arg1="0.38234055"
       sodipodi:arg2="1.0106591"
       inkscape:flatsided="false"
       inkscape:rounded="0"
       inkscape:randomized="0"
       d="m 123.37059,58.712815 -0.75509,0.05759 -0.38064,0.654672 -0.2881,-0.700338 -0.74025,-0.1597 0.57703,-0.490419 -0.0769,-0.753372 0.64473,0.397243 0.69274,-0.30591 -0.17856,0.735928 z"
       inkscape:transform-center-x="0.056370469"
       inkscape:transform-center-y="0.20140595"
       transform="matrix(2.3477747,0,0,2.3471661,-105.7434,-76.832135)" />
    <path
       sodipodi:type="star"
       style="fill:#dcdcdc;fill-opacity:1;stroke:#000000;stroke-width:0.638986;stroke-linecap:round;stroke-miterlimit:4;stroke-dasharray:none;stroke-opacity:1"
       id="path1010-2"
       sodipodi:sides="5"
       sodipodi:cx="122.31255"
       sodipodi:cy="58.28735"
       sodipodi:r1="1.1403736"
       sodipodi:r2="0.57018679"
       sodipodi:arg1="0.38234055"
       sodipodi:arg2="1.0106591"
       inkscape:flatsided="false"
       inkscape:rounded="0"
       inkscape:randomized="0"
       d="m 123.37059,58.712815 -0.75509,0.05759 -0.38064,0.654672 -0.2881,-0.700338 -0.74025,-0.1597 0.57703,-0.490419 -0.0769,-0.753372 0.64473,0.397243 0.69274,-0.30591 -0.17856,0.735928 z"
       inkscape:transform-center-x="0.056370469"
       inkscape:transform-center-y="0.20140595"
       transform="matrix(2.3477747,0,0,2.3471661,-94.518464,-110.19169)" />
    <path
       id="path876"
       style="fill:#dcdcdc;fill-opacity:1;stroke:#000000;stroke-width:1.5;stroke-linecap:butt;stroke-linejoin:miter;stroke-miterlimit:4;stroke-dasharray:none;stroke-opacity:1"
       d="m 295.97289,5.5475252 c 5.09997,-9.526029 22.94349,-10.370441 30.36968,-0.435194 -7.42011,8.1492898 -23.52928,8.4064068 -30.36968,0.435194 z"
       sodipodi:nodetypes="ccc" />
    <path
       id="path31-3-3"
       style="fill:#dcdcdc;fill-opacity:1;stroke:#282828;stroke-width:1.562;stroke-linecap:butt;stroke-linejoin:miter;stroke-miterlimit:4;stroke-dasharray:none;stroke-opacity:1"
       d="m 304.8648,-23.622806 c 2.71726,-1.05718 3.66953,1.28315 4.63536,1.99011 1.37893,-3.42681 3.1011,-2.5215 4.37162,-2.94551 0.99789,-0.0393 3.37235,-0.74549 5.33846,-4.0939 0.82529,4.04841 -1.41654,6.65721 -1.42385,7.69156 0.2794,6.2271 1.04659,13.4139602 -0.33553,15.7460302 -0.54252,1.6032 -10.77528,1.54645 -14.82864,1.6246 -1.60383,0.0308 -1.76405,-13.8327602 -1.5171,-16.1904802 0.1996,-1.18712 -4.55435,-3.67601 -2.56871,-7.88494 2.01207,1.94748 4.12134,4.63433 6.32839,4.06253 z"
       sodipodi:nodetypes="cccccccccc" />
    <path
       id="path43"
       style="fill:#dcdcdc;fill-opacity:1;stroke:#282828;stroke-width:1.5;stroke-linecap:butt;stroke-linejoin:miter;stroke-miterlimit:4;stroke-dasharray:none;stroke-opacity:1"
       d="m 302.34989,-20.605451 c 1.70847,-5.028498 13.92085,-5.327041 14.97598,-1.533106 1.51252,6.055239 1.97938,19.2397682 -0.98177,21.37588324 -2.08599,1.738538 -10.91337,1.578995 -14.80452,0.467562 -4.05748,-2.40561604 -0.4733,-17.42677324 0.81031,-20.31033924 z"
       sodipodi:nodetypes="ccccc" />
    <path
       id="path43-3"
       style="fill:#dcdcdc;fill-opacity:1;stroke:#282828;stroke-width:1.5;stroke-linecap:butt;stroke-linejoin:miter;stroke-miterlimit:4;stroke-dasharray:none;stroke-opacity:1"
       d="m 315.00911,-9.8423668 c -1.57546,1.613178 -12.83697,1.708952 -13.80994,0.491831 -1.39475,-1.9425642 -1.82525,-6.1722572 0.90533,-6.8575372 1.92358,-0.557735 10.06364,-0.506553 13.65183,-0.149997 3.74156,0.771739 0.43645,5.590634 -0.74722,6.5157032 z"
       sodipodi:nodetypes="ccccc" />
    <path
       id="path43-3-6"
       style="fill:#dcdcdc;fill-opacity:1;stroke:#282828;stroke-width:1.5;stroke-linecap:butt;stroke-linejoin:miter;stroke-miterlimit:4;stroke-dasharray:none;stroke-opacity:1"
       d="m 311.87832,-12.783331 c -1.11571,0.14721 -9.09095,0.155951 -9.78001,0.04488 -0.98774,-0.177269 -1.29261,-0.563249 0.64115,-0.625784 1.36225,-0.05089 7.12693,-0.04623 9.66803,-0.01369 2.64972,0.07043 0.30909,0.510175 -0.52917,0.594592 z"
       sodipodi:nodetypes="ccccc" />
    <path
       id="path31-3"
       style="fill:#dcdcdc;fill-opacity:1;stroke:#282828;stroke-width:1.5;stroke-linecap:butt;stroke-linejoin:miter;stroke-miterlimit:4;stroke-dasharray:none;stroke-opacity:1"
       d="m 301.21099,3.0723722 c 5.34562,-2.07976796 7.21901,2.524332 9.11908,3.915106 2.71275,-6.74150396 6.10076,-4.960484 8.60023,-5.79466 1.96314,-0.07733 6.63438,-1.46659596 10.50229,-8.05387 1.62359,7.964377 -2.78675,13.09665 -2.80113,15.131515 0.54967,12.2504968 2.05895,26.3890998 -0.66007,30.9769508 -1.0673,3.154008 -21.19809,3.042315 -29.1722,3.196069 -3.1552,0.0605 -3.47041,-27.213021 -2.98458,-31.851343 0.39267,-2.3353818 -8.95971,-7.2317298 -5.05339,-15.5119258 3.95832,3.831242 8.10787,9.117068 12.44977,7.992158 z"
       sodipodi:nodetypes="cccccccccc" />
    <path
       id="path896"
       style="fill:#dcdcdc;fill-opacity:1;stroke:#000000;stroke-width:1.5;stroke-linecap:butt;stroke-linejoin:miter;stroke-miterlimit:4;stroke-dasharray:none;stroke-opacity:1"
       d="m 310.62404,11.834732 c 3.35739,-3.9488408 1.76594,-7.9977218 10.20632,-7.7461528 -0.154,7.3672958 -5.27959,13.1379358 -10.01785,17.1444838 -5.73968,-4.743773 -8.0683,-8.094753 -10.99686,-14.8319278 4.3564,-2.274648 7.47789,1.089737 10.80839,5.4335968 z"
       sodipodi:nodetypes="ccccc" />
    <path
       id="path913"
       style="fill:#dcdcdc;fill-opacity:1;stroke:#000000;stroke-width:1.5;stroke-linecap:butt;stroke-linejoin:miter;stroke-miterlimit:4;stroke-dasharray:none;stroke-opacity:1"
       d="m 243.30988,-2.1641168 c 1.54551,9.002619 20.65911,18.6386398 32.66538,14.7184558 -9.5023,-6.1306098 -7.57085,-19.8847678 -10.75621,-21.8828428 -3.78351,-1.6170432 -8.27344,11.852238 -21.90917,7.164387 z"
       sodipodi:nodetypes="cccc" />
    <path
       id="path913-7"
       style="fill:none;fill-opacity:1;stroke:#000000;stroke-width:1.5;stroke-linecap:butt;stroke-linejoin:miter;stroke-miterlimit:4;stroke-dasharray:none;stroke-opacity:1"
       d="m 282.90416,-2.6494158 c -1.54551,-9.0026252 -20.65913,-18.6386492 -32.66537,-14.7184552 9.50229,6.130603 7.57083,19.8847672 10.7562,21.8828352 3.78351,1.617036 8.27343,-11.852222 21.90917,-7.16438 z"
       sodipodi:nodetypes="cccc" />
    <path
       id="path903"
       style="fill:#dcdcdc;fill-opacity:1;stroke:#000000;stroke-width:1.5;stroke-linecap:butt;stroke-linejoin:miter;stroke-miterlimit:4;stroke-dasharray:none;stroke-opacity:1"
       d="m 247.29226,-9.4918738 c 2.68785,-2.3511342 92.64262,43.8028238 91.59949,46.3712548 -1.45588,2.057145 -92.81107,-44.2128688 -91.59949,-46.3712548 z"
       sodipodi:nodetypes="ccc" />
    <path
       id="path905"
       style="fill:#dcdcdc;fill-opacity:1;stroke:#000000;stroke-width:1.5;stroke-linecap:butt;stroke-linejoin:miter;stroke-miterlimit:4;stroke-dasharray:none;stroke-opacity:1"
       d="m 336.91602,23.336655 c -5.00433,3.806876 -9.44032,8.649783 -15.4729,10.857607 -6.12642,0.373826 -3.36484,-8.305622 1.47067,-7.791003 5.14423,-1.824096 10.29208,-11.659157 15.87941,-7.235117 0.96316,1.620322 0.0356,3.898522 -1.87718,4.168513 z" />
    <path
       id="path905-5"
       style="fill:#dcdcdc;fill-opacity:1;stroke:#000000;stroke-width:1.53124;stroke-linecap:butt;stroke-linejoin:miter;stroke-miterlimit:4;stroke-dasharray:none;stroke-opacity:1"
       d="m 282.84682,25.353692 c -2.19379,-6.155019 -5.54045,-12.054035 -5.91137,-18.7552758 1.40724,-6.24176996 8.89918,-0.860332 7.01541,3.8219398 0.26034,5.696749 8.16854,13.814119 2.33552,18.069002 -1.82442,0.474701 -3.73257,-1.140579 -3.43956,-3.135666 z" />
    <g
       id="g1205"
       transform="matrix(0.44541033,-0.14869349,0.14840416,0.44627872,-118.5177,84.272778)"
       style="stroke-width:3.19189;stroke-miterlimit:4;stroke-dasharray:none">
      <path
         id="path1013-2"
         style="fill:#dcdcdc;fill-opacity:1;stroke:#282828;stroke-width:3.19189;stroke-linecap:butt;stroke-linejoin:miter;stroke-miterlimit:4;stroke-dasharray:none;stroke-opacity:1"
         d="m 91.520476,286.2526 c 2.31444,-0.10637 4.73149,0.37419 6.59624,1.80963 5.827694,3.38019 3.571624,7.46392 5.043264,11.9415 5.27093,3.63418 0.16764,-11.37976 -1.60411,-14.40745 -1.991102,-1.78319 -8.547207,-3.36185 -10.756809,-2.70718 -1.467462,1.10587 -1.772666,3.82279 0.721397,3.36349 z"
         sodipodi:nodetypes="scccccs" />
      <path
         id="path1013-2-7"
         style="fill:#dcdcdc;fill-opacity:1;stroke:#282828;stroke-width:3.19189;stroke-linecap:butt;stroke-linejoin:miter;stroke-miterlimit:4;stroke-dasharray:none;stroke-opacity:1"
         d="m 105.18106,329.80411 c 2.26284,-0.49752 4.47254,-1.58851 5.9012,-3.45846 4.75162,-4.77597 1.51361,-8.13484 1.77361,-12.84089 4.14803,-4.87686 3.11331,10.9469 2.18742,14.33049 -1.4605,2.23858 -7.38283,5.46358 -9.68662,5.40439 -1.70406,-0.68745 -2.70347,-3.23224 -0.17562,-3.43551 z"
         sodipodi:nodetypes="scccccs" />
      <path
         id="path1002"
         style="fill:#dcdcdc;fill-opacity:1;stroke:#282828;stroke-width:3.19189;stroke-linecap:butt;stroke-linejoin:miter;stroke-miterlimit:4;stroke-dasharray:none;stroke-opacity:1"
         d="m 95.043494,232.17078 c -7.071469,7.77927 6.374936,21.55001 3.908214,32.58025 -1.644321,14.47145 1.497082,29.95043 6.369272,44.55726 4.76228,15.6818 8.00318,31.7764 13.14027,47.31868 4.32093,15.647 7.6065,32.5277 15.39683,46.40493 9.10453,7.14173 0.50161,-15.50889 -1.25937,-21.413 -4.14436,-11.41214 -7.06887,-23.28132 -10.19918,-34.99299 -4.3616,-9.31468 -7.3961,-20.60565 -3.11993,-28.79948 1.91269,-6.50153 -2.28782,-7.11734 -4.64241,-4.36139 -5.18962,-10.82695 -3.80008,-24.60455 -8.84321,-36.21195 -3.51733,-13.60411 -0.0421,-28.31597 -7.239052,-41.15816 -0.794278,-1.89221 -2.178695,-3.10851 -3.511434,-3.92415 z" />
      <path
         id="path1007"
         style="fill:#dcdcdc;fill-opacity:1;stroke:#282828;stroke-width:3.19189;stroke-linecap:butt;stroke-linejoin:miter;stroke-miterlimit:4;stroke-dasharray:none;stroke-opacity:1"
         d="m 81.369481,187.80876 c -1.308298,-1.89819 -2.003237,-4.59282 -4.410718,-5.41368 -1.881106,1.02869 -0.769009,3.8259 0.09552,5.26656 1.451848,2.15089 2.955938,4.41362 3.177446,7.07506 0.568592,2.32612 1.933463,4.81157 0.784261,7.19038 -0.813385,2.10878 -1.965123,4.06219 -2.893638,6.1188 -1.781627,1.17346 -2.99349,4.48578 -0.57446,5.62417 2.230275,0.26706 1.723323,-3.23905 3.327265,-4.24511 1.637774,-2.0458 3.360303,-4.14079 5.804783,-5.24752 2.01431,-1.1406 4.323473,-1.42016 6.542796,-1.88437 2.723148,-0.60826 5.407401,-1.45773 7.814004,-2.8968 1.877,-0.80082 3.45277,-2.31416 5.47404,-2.7337 1.9976,-0.27177 4.41146,0.60668 6.0551,-0.92924 1.19183,-2.21552 -1.98558,-3.17807 -3.68207,-2.70808 -2.59199,0.29541 -5.12485,1.07061 -7.55429,1.99173 -2.728725,1.3631 -4.931249,3.61086 -7.803008,4.72003 -2.153014,1.16625 -4.702206,1.24557 -7.071212,0.91079 -2.398747,-0.54006 -3.233402,-3.26565 -3.426207,-5.4263 -0.156784,-1.94354 -0.06894,-3.97286 -1.062248,-5.73266 -0.23309,-0.54683 -0.459953,-1.10005 -0.597367,-1.68006 z" />
      <path
         style="fill:#dcdcdc;fill-opacity:1;stroke:#282828;stroke-width:3.19189;stroke-linecap:round;stroke-miterlimit:4;stroke-dasharray:none;stroke-opacity:1"
         id="path39"
         sodipodi:type="arc"
         sodipodi:cx="224.9442"
         sodipodi:cy="-21.522799"
         sodipodi:rx="16.478973"
         sodipodi:ry="5.0080895"
         sodipodi:start="4.6021889"
         sodipodi:end="4.5774925"
         sodipodi:open="true"
         sodipodi:arc-type="arc"
         d="m 223.13189,-26.50051 a 16.478973,5.0080895 0 0 1 18.17982,4.396214 16.478973,5.0080895 0 0 1 -14.35309,5.552028 16.478973,5.0080895 0 0 1 -18.35706,-4.327656 16.478973,5.0080895 0 0 1 14.12642,-5.605467"
         transform="rotate(72.179709)" />
      <path
         id="path964"
         style="fill:#dcdcdc;fill-opacity:1;stroke:#282828;stroke-width:3.19189;stroke-linecap:butt;stroke-linejoin:miter;stroke-miterlimit:4;stroke-dasharray:none;stroke-opacity:1"
         d="m 99.55835,225.77071 c 3.1217,-8.94996 6.07656,-14.56744 2.81902,-23.51227 -1.13787,-3.55938 -3.29033,-6.64409 -4.642706,-10.09437 -1.477759,-4.66008 -2.164538,-9.53238 -3.124621,-14.31286 -0.799411,-3.9279 0.419423,-7.70405 1.208561,-11.42849 -0.91006,-3.95075 -4.224901,1.79655 -4.684492,3.48331 -1.420293,3.69602 -0.464432,7.811 0.440439,11.52462 0.176639,2.70798 3.631653,6.97926 0.745259,8.81799 -1.556296,1.17978 -9.781976,-13.84453 -11.679533,-19.81701 -0.339894,-2.4173 -2.178675,-6.9398 -4.887711,-3.7507 -1.474334,3.58602 2.093165,6.58721 3.328379,9.68868 2.202901,4.82967 4.39072,10.00724 8.776858,13.28622 3.058756,2.66198 6.847773,5.97808 8.027952,9.16368 0.569648,2.35277 -5.253423,0.89852 -8.481921,1.00586 -9.894222,0.57214 -15.521247,-6.90763 -12.320867,-0.9718 1.744627,2.30378 6.611228,3.96817 10.27077,4.18058 4.265677,0.20415 8.830178,-0.61729 12.824534,1.25123 3.389979,2.84998 3.132009,4.78014 0.645787,11.58502 -1.107676,3.28166 -0.720611,9.04984 -3.571979,10.42677 -3.725742,1.24261 -5.151558,-3.52688 -7.277231,-6.28167 -5.132651,-6.54558 -21.934127,-17.41736 -23.333456,-22.5461 -2.63283,-7.45925 10.455959,-4.92437 10.022318,-7.84184 -0.201052,-4.6039 -12.307174,5.85106 -13.193532,-9.43256 -6.370628,-7.40912 -0.326326,15.12752 1.158148,20.0765 2.145718,4.85191 14.384847,12.29991 20.838768,18.62697 2.761056,2.75342 3.361196,7.00506 5.811053,9.45961 4.398702,4.03668 1.440621,9.92652 5.266427,11.88165 8.863446,3.40045 3.298342,-9.39734 5.013776,-14.46902 z"
         sodipodi:nodetypes="cccccccccccccccccccccccccccc" />
      <path
         id="path1013"
         style="fill:#dcdcdc;fill-opacity:1;stroke:#282828;stroke-width:3.19189;stroke-linecap:butt;stroke-linejoin:miter;stroke-miterlimit:4;stroke-dasharray:none;stroke-opacity:1"
         d="m 87.574642,208.71494 c -0.909478,2.13092 -2.392205,4.09931 -4.495141,5.15547 -5.575986,3.78102 -8.274421,-0.0249 -12.94676,-0.64423 -5.562926,3.16921 10.177385,5.09391 13.674107,4.81312 2.471046,-1.01892 6.740717,-6.23856 7.110791,-8.5132 -0.358698,-1.80215 -2.673335,-3.25719 -3.342986,-0.81118 z"
         sodipodi:nodetypes="scccccs" />
      <path
         style="fill:#dcdcdc;fill-opacity:1;stroke:#282828;stroke-width:3.22692;stroke-linecap:round;stroke-miterlimit:4;stroke-dasharray:none;stroke-opacity:1"
         id="path1024"
         sodipodi:type="arc"
         sodipodi:cx="37.829922"
         sodipodi:cy="302.26047"
         sodipodi:rx="2.6212869"
         sodipodi:ry="3.3344588"
         sodipodi:start="4.6021889"
         sodipodi:end="4.5774925"
         sodipodi:open="true"
         sodipodi:arc-type="arc"
         d="m 37.54164,298.94624 a 2.6212869,3.3344588 0 0 1 2.891839,2.92706 2.6212869,3.3344588 0 0 1 -2.283127,3.69662 2.6212869,3.3344588 0 0 1 -2.92003,-2.88142 2.6212869,3.3344588 0 0 1 2.247069,-3.7322"
         transform="matrix(0.90047744,-0.43490272,0.2394093,0.97091873,0,0)" />
      <path
         style="fill:#dcdcdc;fill-opacity:1;stroke:#282828;stroke-width:3.22692;stroke-linecap:round;stroke-miterlimit:4;stroke-dasharray:none;stroke-opacity:1"
         id="path1024-1"
         sodipodi:type="arc"
         sodipodi:cx="36.820133"
         sodipodi:cy="263.43307"
         sodipodi:rx="2.6212869"
         sodipodi:ry="3.3344588"
         sodipodi:start="4.6021889"
         sodipodi:end="4.5774925"
         sodipodi:open="true"
         sodipodi:arc-type="arc"
         d="m 36.531851,260.11884 a 2.6212869,3.3344588 0 0 1 2.891839,2.92707 2.6212869,3.3344588 0 0 1 -2.283126,3.69662 2.6212869,3.3344588 0 0 1 -2.920031,-2.88142 2.6212869,3.3344588 0 0 1 2.247069,-3.7322"
         transform="matrix(0.90047744,-0.43490272,0.23940931,0.97091873,0,0)" />
    </g>
    <path
       id="path905-9"
       style="fill:#dcdcdc;fill-opacity:1;stroke:#000000;stroke-width:1.5;stroke-linecap:butt;stroke-linejoin:miter;stroke-miterlimit:4;stroke-dasharray:none;stroke-opacity:1"
       d="m -52.932119,198.32008 c 5.232498,-5.98162 9.491971,-13.08509 16.413825,-17.37477 7.511445,-2.0646 6.320877,9.30604 0.183336,9.94241 -5.917667,3.58609 -9.773455,16.99983 -17.853034,13.03778 -1.614018,-1.73508 -1.049794,-4.77281 1.255873,-5.60542 z" />
    <path
       id="path1084-6"
       style="fill:#dcdcdc;fill-opacity:1;stroke:#000000;stroke-width:1.5;stroke-linecap:butt;stroke-linejoin:miter;stroke-miterlimit:4;stroke-dasharray:none;stroke-opacity:1"
       d="m -6.9456578,190.56584 c -0.925316,2.29219 0.928632,5.01454 -0.912215,7.07351 -2.2922102,1.8216 -5.2607352,-0.92995 -5.3211212,-3.11337 -0.759469,-2.4402 1.253825,-5.19773 4.3359282,-4.72759 0.700534,0.0603 1.429446,0.27979 1.897408,0.76745 z" />
    <path
       id="path892-0"
       style="fill:#dcdcdc;fill-opacity:1;stroke:#000000;stroke-width:1.5;stroke-linecap:butt;stroke-linejoin:miter;stroke-miterlimit:4;stroke-dasharray:none;stroke-opacity:1"
       d="m -17.297531,174.73874 c 2.742476,-7.78854 10.8938742,-8.25455 14.9840872,-2.43863 2.75993197,3.51217 3.23944497,9.53156 1.55863697,14.10583 -1.56616797,5.03813 -5.63185997,8.03737 -9.41791117,6.7042 -4.866627,-1.23505 -9.303824,-7.71657 -8.896042,-15.01731 0.231954,-1.40546 0.914079,-2.61098 1.771229,-3.35409 z" />
    <path
       id="path914-6"
       style="fill:none;stroke:#000000;stroke-width:1.5;stroke-linecap:butt;stroke-linejoin:miter;stroke-miterlimit:4;stroke-dasharray:none;stroke-opacity:1"
       d="m -2.2011348,180.50074 c -0.743562,-1.35798 -3.751702,-1.63706 -3.99589,-0.31916 -0.048,0.99581 2.829269,0.62551 3.99589,0.31916 z"
       sodipodi:nodetypes="ccc" />
    <path
       id="path914-3-1"
       style="fill:none;stroke:#000000;stroke-width:1.5;stroke-linecap:butt;stroke-linejoin:miter;stroke-miterlimit:4;stroke-dasharray:none;stroke-opacity:1"
       d="m -12.323578,180.49812 c 0.757908,-1.34997 3.7688652,-1.59704 3.9990212,-0.27661 0.03738,0.99626 -2.8357152,0.59536 -3.9990212,0.27661 z"
       sodipodi:nodetypes="ccc" />
    <path
       id="path905-9-9"
       style="fill:#dcdcdc;fill-opacity:1;stroke:#000000;stroke-width:1.5;stroke-linecap:butt;stroke-linejoin:miter;stroke-miterlimit:4;stroke-dasharray:none;stroke-opacity:1"
       d="m 9.9054652,219.74805 c -7.927601,-0.41644 -15.978662,-2.31401 -23.8748632,-0.33739 -6.716371,3.95209 2.245248,11.02956 6.9818612,7.06744 6.69255497,-1.74655 18.9744288,4.84286 21.7775088,-3.72127 -0.114813,-2.36908 -2.680682,-4.08315 -4.8845068,-3.00878 z" />
    <path
       style="fill:#dcdcdc;fill-opacity:1;stroke:#000000;stroke-width:1.5;stroke-linecap:butt;stroke-linejoin:miter;stroke-miterlimit:4;stroke-dasharray:none;stroke-opacity:1"
       d="m -16.5213,184.14124 c 0.685082,0.0513 0.43241,-1.03026 0.737233,-1.17319 0.348079,-0.16321 1.582747,-0.009 1.781924,0.1778 0.665796,0.62439 1.09708,1.44623 1.434442,2.20734 0.199036,0.44904 -0.06035,1.05881 0.147395,1.50663 0.183888,0.3963 3.4265622,1.45039 4.1732772,1.68478 0.35069,0.11008 1.924454,0.17685 2.301625,0 0.05656,-0.0265 -0.04269,-0.13411 0,-0.1778 0.09275,-0.0949 0.536214,-0.28288 0.652555,-0.39199 0.09015,-0.0845 0.180746,-0.8063 0.496611,-0.95532 0.381906,-0.18018 0.816809,-0.37549 1.266589,-0.51609 0.106404,-0.0333 0.349454,0.0587 0.443138,0 0.139496,-0.0874 1.771695,-1.14029 2.09217497,-0.74866 0.174657,0.21343 0.07152,0.20378 0.358849,0.32393 0.43032,0.17996 0.212559,1.15225 0.340375,1.48696 0.522767,1.36899 0.01344,0.98697 -0.281246,1.94414 -0.241403,0.78404 0.09871,3.24775 -0.189599,4.00731 -0.31873497,0.8397 -0.54029897,1.46215 -0.75358397,2.26219 -0.05472,0.20541 0.07336,0.50435 0,0.70902 -0.290195,0.80972 -0.930094,1.3354 -1.316357,2.08177 -0.205711,0.39752 0.146712,1.26272 0.293912,1.46445 0.189978,0.26037 -0.09308,2.72816 0.171937,2.88909 0.306503,0.18616 0.01972,0.15252 0.183304,0.45198 0.14358,0.26293 0.178037,0.1634 0.340699,0.28767 0.183661,0.14033 -0.111865,0.9105 0,1.12033 0.112245,0.21051 0.747788,0.99383 0.650453,1.0937 -0.277919,0.28515 -0.7696,0.1467 -1.053987,0.34963 -0.559598,0.39933 0.685429,1.0938 0.749434,1.15383 0.223688,0.20981 0.345792,0.50223 0.56946897,0.71204 0.183173,0.17182 0.800274,0.32734 0.04854,0.51562 -0.58216797,0.14582 -3.33900197,-0.0808 -3.83305497,-0.35353 -0.698075,-0.38534 1.125273,0.0391 -0.922531,-0.50954 -0.36599,-0.0981 -0.864616,-0.0331 -1.054475,-0.27858 -0.152422,-0.19704 -1.083676,0.18256 -1.265007,0 -0.03619,-0.0365 -0.538739,-0.71899 -0.569003,-0.8893 -0.0033,-0.0196 0.09687,-1.53259 0,-1.58871 -0.04388,-0.0254 -0.07303,0.0685 -0.109622,0.10281 -0.152086,0.14262 -0.459358,0.34167 -0.554375,0.51988 -0.08679,0.16271 0.12865,0.59055 0,0.7112 -0.04464,0.0419 -0.14319,-0.0403 -0.189588,0 -0.135486,0.11751 -0.05515,0.36929 -0.189599,0.48781 -0.03522,0.031 -0.353669,0 -0.418953,0 -0.3866302,0 -1.4331412,0.1529 -1.7665372,0 -0.490261,-0.22483 -0.940171,-0.5147 -1.466395,-0.67844 -0.787511,-0.24503 -0.925945,1.5049 -1.423076,1.18699 -0.962709,-0.61562 -1.059859,-1.63578 -1.498024,-2.4716 -0.334902,-0.63888 -1.158895,0.39419 -1.632849,0.11325 -0.129018,-0.0765 -0.189599,-1.36127 -0.189599,-1.58102 0,-0.45843 -1.113788,0.25068 -0.619615,-1.13962 0.05656,-0.15903 0.322669,-0.19657 0.379187,-0.35561 0.03998,-0.11244 -0.03998,-0.24314 0,-0.35559 0.05949,-0.16732 0.947821,-0.55482 1.122131,-0.88175 0.224695,-0.42142 0.152639,-0.92495 0.379198,-1.34988 0.346702,-0.65028 -1.039338,-1.88117 -0.866924,-2.34859 0.131629,-0.35685 0.670661,-0.38324 0.916312,-0.52502 0.575124,-0.33196 0.604315,-2.17539 0.411411,-2.71811 -0.234728,-0.66036 -0.905541,-1.4361 -1.40913,-1.96503 -0.03489,-0.0366 -0.136938,0.0453 -0.156951,0 -0.512615,-1.16142 -0.229961,-2.6042 -0.862676,-3.70969 -0.0622,-0.10873 -0.07411,-1.32832 0,-1.47416 0.0259,-0.051 0.136938,0.0388 0.18067,0 0.07791,-0.0692 0.128574,-0.40382 0.183087,-0.50528 0.101203,-0.18836 0.393522,-0.28725 0.506948,-0.47146 0.123264,-0.20016 0.326158,-0.8956 0.433852,-1.0022 0.141868,-0.14042 0.549401,-0.30669 0.846011,-0.43639 z"
       id="path1207" />
    <path
       style="fill:#dcdcdc;fill-opacity:1;stroke:#000000;stroke-width:1.5;stroke-linecap:butt;stroke-linejoin:miter;stroke-miterlimit:4;stroke-dasharray:none;stroke-opacity:1"
       d="m -7.7202738,183.74485 c -0.707046,0.65842 -1.589324,0.35317 -2.4145632,0.62652 -0.136884,0.0453 -0.314293,0.0628 -0.439172,0.12496 -0.123405,0.0614 -0.214694,0.18664 -0.361178,0.18664 -0.12696,0 -0.541947,-0.19509 -0.594282,0.0172 -0.07574,0.30734 0.02167,0.45495 0.279912,0.62747 0.06815,0.0455 0.112798,0.14998 0.185904,0.18626 0.07498,0.0372 0.167874,0.022 0.249389,0.0629 0.1092,0.0547 0.493761,-0.0879 0.55587,0 0.06555,0.0928 0.197563,0.22135 0.3470282,0.29622 0.356746,0.17872 -0.1562592,-0.0549 0.313697,0.0629 0.07216,0.0181 0.168827,0.0986 0.241132,0.12165 0.245022,0.0782 0.656022,0 0.911522,0 0.06111,0 0.08083,0.0867 0.172089,0.041 0.157158,-0.0787 0.158133,-0.21117 0.271212,-0.26781 0.233244,-0.11685 0.402667,-0.25025 0.689547,-0.34806 0.13566,-0.0462 0.315897,0.15737 0.434166,0.219 0.112082,0.0584 0.881638,0.12494 1.04612,0.12494 0.193922,0 0.576577,0.0858 0.744125,0 0.281105,-0.14399 -0.03966,-0.0367 0.312928,-0.12495 0.07834,-0.0196 0.172707,-0.16189 0.25095,-0.18781 0.225431,-0.0747 0.519181,0.0606 0.749358,0 0.307132,-0.0808 0.498117,-0.26468 0.753271,-0.35652 0.04746,-0.0171 0.127316,0.0228 0.172056,0 0.07292,-0.0372 0.113079,-0.0867 0.185882,-0.12455 0.100445,-0.0523 0.284247,-0.0159 0.391334,-0.0629 0.08213,-0.0361 -0.216016,-0.20367 -0.23202,-0.20814 -0.187497,-0.0523 -0.360821,-0.12387 -0.544709,-0.18702 -0.210262,-0.0722 -0.789905,-0.0123 -1.042198,-0.0629 -0.159726,-0.032 -0.341382,-0.10562 -0.501909,-0.12573 -0.310826,-0.0389 -0.466424,-0.0109 -0.75287,-0.12572 -0.768906,-0.30816 -1.048602,-0.8172 -2.006088,-0.8172 -0.08928,0 -0.318898,-0.0409 -0.363703,0.0629 -0.03153,0.0731 -0.0033,0.1592 -0.0043,0.2388 z"
       id="path1209" />
    <path
       style="fill:#dcdcdc;fill-opacity:1;stroke:#000000;stroke-width:1.5;stroke-linecap:butt;stroke-linejoin:miter;stroke-miterlimit:4;stroke-dasharray:none;stroke-opacity:1"
       d="m -10.452446,173.25554 c 0,0.28486 0,0.56972 0,0.85458 0,0.17114 0.03998,0.52702 0,0.7112 -0.0648,0.29938 -0.138672,0.33778 -0.308236,0.53339 -0.179327,0.20689 -0.241978,0.50365 -0.525379,0.6115 -0.365383,0.13905 -0.929249,-0.0772 -1.250651,-0.26261 -0.0934,-0.0539 -0.48389,-0.47102 -0.517382,-0.43712 -0.057,0.0577 0.04605,1.35181 0,1.56378 -0.06675,0.307 -0.276348,0.8421 -0.452641,1.05557 -0.07303,0.0884 -0.275014,0.15379 -0.347417,0.3161 -0.06707,0.15031 -0.110294,0.26637 -0.226786,0.43438 -0.100011,0.14422 -0.288993,0.26177 -0.379902,0.3556 -0.01593,0.0164 0,0.0493 0,0.0739 -0.02525,0.0291 -0.04605,0.0644 -0.07563,0.0873 -0.310403,0.23946 -0.565199,0.0393 -0.774833,-0.25077 -0.05851,-0.0809 -0.286782,-0.48078 -0.374451,-0.44449 -0.138499,0.0573 -0.12372,0.34349 -0.180866,0.47535 -0.195179,0.45033 -0.460767,2.41437 -0.293067,2.8035 0.09839,0.22827 0.12814,0.48652 0.228607,0.70818 0.313253,0.69113 0.709105,0.74921 0.462511,1.5956 -0.112244,0.38528 0.149768,-0.0391 -0.07704,0.35339 -0.182956,0.31659 -0.48869,0.33557 -0.76598,0.44219 -0.0065,0.002 -0.141121,0.16746 -0.149887,0.17294 -0.161307,0.10076 -0.831242,-0.0856 -1.053532,0.0889 -0.08408,0.066 -0.07704,0.47432 -0.07704,0.57466 0,1.10089 0.07704,2.10177 0.07704,3.17829 0,0.74023 -0.549758,1.21353 -1.076958,1.418 -0.168632,0.0654 -0.518368,0 -0.684703,0 -0.04887,0 -0.646628,-0.0568 -0.676621,0 -0.236852,0.44865 -0.10532,1.54789 -0.231174,2.12852 -0.03359,0.1553 0.06588,0.44811 0,0.59169 -0.263313,0.57378 -0.823007,-0.0868 -1.047583,0.11916 -0.05775,0.0529 -0.07552,0.28063 -0.123969,0.39242 -0.03933,0.0907 0.0817,1.43799 -0.404574,0.73019 -0.05754,-0.0837 -0.117641,-0.16849 -0.154124,-0.2667 -0.264948,-0.71319 -0.733994,-2.12973 -0.384962,-2.93446 0.06425,-0.14823 0.438305,-0.77235 0.539758,-0.88939 0.154253,-0.17794 0.365111,-0.22153 0.539432,-0.3556 0.152661,-0.11741 0.416905,-0.59252 0.461407,-0.7979 0.100444,-0.46333 -0.242856,-1.41304 -0.308616,-1.86824 -0.04518,-0.31311 -0.04453,-0.84755 0,-1.15569 0.158425,-1.09659 0.719507,-1.54223 0.92472,-2.4892 0.07682,-0.35467 -0.164927,-0.49433 -0.231175,-0.80009 -0.169607,-0.78261 -0.413015,-1.46536 -0.308247,-2.31139 0.06317,-0.50971 0.483468,-0.79961 0.616484,-1.2446 0.09654,-0.32294 -0.09178,-0.72987 -0.154124,-1.01746 -0.07867,-0.36313 -0.03782,-1.64079 0.07704,-2.0383 0.07932,-0.2744 0.197552,-0.63359 0.304585,-0.88056 0.199849,-0.46109 0.766468,-0.78799 0.923766,-1.33238 0.28468,-0.98523 -0.205223,-1.19562 0.462371,-2.22249 0.140969,-0.21683 0.315334,-0.58194 0.539433,-0.71119 0.04594,-0.0265 0.111366,0.0329 0.154112,0 0.04778,-0.0367 0.03652,-0.13095 0.07704,-0.17781 0.131944,-0.15221 0.390023,-0.16328 0.539433,-0.2667 0.185167,-0.12817 0.12918,-0.1791 0.231185,-0.3556 0.236398,-0.40907 -0.143147,0.362 0.231175,-0.17779 0.175458,-0.25301 0.426754,-0.93681 0.616494,-1.1557 0.03196,-0.0368 0.309959,-0.10081 0.366347,-0.16586 0.215062,-0.2481 0.540256,-0.8592 0.847669,-0.97789 0.172501,-0.0666 0.645078,0.47047 1.174986,0.26669 0.387932,-0.14917 0.642955,-0.68201 1.001793,-0.88899 0.45043,-0.25982 0.956099,0.48871 1.304015,0.62252 0.200814,0.0772 0.708834,0.0498 0.924731,0 0.212971,-0.0491 0.408096,-0.26687 0.6155512,-0.3556 0.21983,-0.094 0.603611,0.14404 0.890383,0.0889 0.175675,-0.0338 0.168448,-0.15919 0.308247,-0.2667 0.148066,-0.11388 0.425281,-0.2107 0.615497,-0.26556 0.330536,-0.0953 0.75002,0.12384 1.072071,0 0.186955,-0.0719 1.116844,-0.71899 1.297254,-0.61493 0.529952,0.30569 0.974997,1.8641 1.471109,2.05487 0.273335,0.10512 0.636171,-0.1358 0.890989,-0.1778 0.243755,-0.0402 0.387075,0.036 0.616494,0.0889 0.05038,0.0116 0.111367,-0.0329 0.154113,0 0.186478,0.14342 0.280953,0.83713 0.231196,1.0668 -0.0246,0.11317 -0.150385,0.35543 -0.154123,0.4445 -0.0033,0.0809 0.461915,0.1824 0.283141,0.38204 -0.05233,0.0584 -0.532194,0.58601 -0.536864,0.70528 -0.01528,0.3895 0.92148,0.39589 1.065526,0.42913 0.231803,0.0535 0.231045,0.12456 0.463043,0.17818 0.07487,0.0173 0.17439597,-0.0616 0.22896397,0 0.30336,0.34233 0.592905,0.41154 0.920938,0.78996 0.166108,0.19163 0.162391,0.29531 0.231185,0.5334 0.07574,0.26203 0.494076,0.3227 0.614534,0.53114 0.0285,0.0493 -0.01614,0.12157 0,0.1778 0.125485,0.43431 -0.05255,0.50201 -0.231186,0.88899 -0.04648,0.10086 -0.132138,0.54451 -0.214173,0.59182 -0.276099,0.15926 -0.757421,0.30922 -1.13028,0.1778 -0.151761,-0.0535 -0.56836297,-0.18421 -0.75208897,-0.0782 -0.117901,0.068 -0.725033,0.58933 -0.840734,0.53351 -0.640755,-0.30916 -1.751932,-1.49755 -2.490238,-1.21365 -0.09882,0.038 -0.209374,0.13979 -0.308237,0.1778 -0.162261,0.0624 -0.372815,-0.048 -0.539432,0 -0.391875,0.11303 -1.053933,0.86443 -1.444887,0.6223 -0.09188,-0.0569 -0.139723,-0.17996 -0.221108,-0.25508 -0.07704,-0.0593 -0.154124,-0.11853 -0.231186,-0.1778 -0.02568,0 -0.05396,0.0131 -0.07704,0 -0.233916,-0.13267 -0.571874,-0.61823 -0.686361,-0.8807 -0.07336,-0.16825 -0.0022,-0.52843 -0.153138,-0.62003 -0.418823,-0.25425 -1.5214392,-0.0769 -1.9677092,0.0604 z"
       id="path1169" />
    <path
       style="fill:#dcdcdc;fill-opacity:1;stroke:#000000;stroke-width:1.546;stroke-linecap:round;stroke-miterlimit:4;stroke-dasharray:none;stroke-opacity:1"
       id="path89"
       sodipodi:type="arc"
       sodipodi:cx="77.023514"
       sodipodi:cy="44.259872"
       sodipodi:rx="11.364444"
       sodipodi:ry="11.137665"
       sodipodi:start="4.6021889"
       sodipodi:end="4.5774925"
       sodipodi:open="true"
       sodipodi:arc-type="arc"
       d="M 75.773684,33.189767 A 11.364444,11.137665 0 0 1 88.31109,42.966659 11.364444,11.137665 0 0 1 78.412724,55.314009 11.364444,11.137665 0 0 1 65.753091,45.689583 11.364444,11.137665 0 0 1 75.495136,33.22339"
       transform="rotate(5.7147579)" />
    <path
       id="path915"
       style="fill:#dcdcdc;fill-opacity:1;stroke:#000000;stroke-width:1.565;stroke-linecap:butt;stroke-linejoin:miter;stroke-miterlimit:4;stroke-dasharray:none;stroke-opacity:1"
       d="m 77.007823,47.310827 c -2.65451,-2.84901 -9.202822,-4.32809 -12.833605,-3.04066 -5.005335,2.55351 -3.08912,14.77139 -5.916736,18.65308 4.500256,0.25539 12.459602,-1.15929 16.938161,-1.64984 3.29405,-2.86052 -0.31722,-9.95509 1.81218,-13.96258 z"
       sodipodi:nodetypes="ccccc" />
    <path
       id="path966"
       style="fill:#dcdcdc;fill-opacity:1;stroke:#000000;stroke-width:1.565;stroke-linecap:butt;stroke-linejoin:miter;stroke-miterlimit:4;stroke-dasharray:none;stroke-opacity:1"
       d="m 63.859497,48.696007 c 0.287952,-1.70424 9.739996,-0.37301 8.895201,1.52384 -1.819761,0.52941 -8.704169,0.20125 -8.895201,-1.52384 z"
       sodipodi:nodetypes="ccc" />
    <path
       id="path905-6-0-7-7"
       style="fill:#dcdcdc;fill-opacity:1;stroke:#000000;stroke-width:1.5;stroke-linecap:butt;stroke-linejoin:miter;stroke-miterlimit:4;stroke-dasharray:none;stroke-opacity:1"
       d="m 97.518883,85.580747 c -3.80325,-7.54503 -6.32064,-16.02914 -12.29017,-22.21193 -7.14896,-3.99383 -8.876,8.21614 -2.76258,10.37811 5.12458,5.20065 5.59468,20.20156 14.88564,18.01594 2.10041,-1.4258 2.31004,-4.74767 0.16711,-6.18212 z" />
    <path
       id="path905-9-9-5"
       style="fill:#dcdcdc;fill-opacity:1;stroke:#000000;stroke-width:1.5;stroke-linecap:butt;stroke-linejoin:miter;stroke-miterlimit:4;stroke-dasharray:none;stroke-opacity:1"
       d="m 94.73322,86.52115 c -7.753705,-1.703034 -15.387801,-4.887514 -23.500583,-4.224372 -7.270724,2.804501 0.417456,11.248026 5.736529,8.110937 6.887739,-0.632336 17.931317,7.870842 22.092825,-0.121869 0.272875,-2.356112 -1.979296,-4.465484 -4.328771,-3.764696 z" />
    <path
       style="fill:#dcdcdc;fill-opacity:1;stroke:#000000;stroke-width:1.565;stroke-linecap:butt;stroke-linejoin:miter;stroke-miterlimit:4;stroke-dasharray:none;stroke-opacity:1"
       d="M 3.4438549,20.263255 24.071111,33.336481 11.703945,28.791391 15.856964,41.302575 Z"
       id="path1085" />
    <rect
       style="fill:#282828;fill-opacity:1;stroke:#dcdcdc;stroke-width:1.5;stroke-linecap:round;stroke-miterlimit:4;stroke-dasharray:none;stroke-opacity:1"
       id="rect10-2"
       width="100"
       height="100"
       x="-11.824405"
       y="-179.25502" />
    <path
       id="path905-6-0-3-9"
       style="fill:#282828;fill-opacity:1;stroke:#dcdcdc;stroke-width:1.5;stroke-linecap:butt;stroke-linejoin:miter;stroke-miterlimit:4;stroke-dasharray:none;stroke-opacity:1"
       d="m 35.501269,-98.256393 c 6.293006,-5.620107 11.730779,-12.585707 19.544663,-16.143487 8.114244,-1.08904 5.271021,10.90007 -1.210898,10.66577 -6.668839,2.9547 -12.575913,16.732523 -20.432091,11.288287 -1.436346,-2.097233 -0.420465,-5.263475 2.098326,-5.81057 z" />
    <path
       id="path1100-3-6-1"
       style="fill:#282828;fill-opacity:1;stroke:#dcdcdc;stroke-width:1.5;stroke-linecap:butt;stroke-linejoin:miter;stroke-miterlimit:4;stroke-dasharray:none;stroke-opacity:1"
       d="m 51.13948,-78.554674 c -5.859581,-16.345281 -3.097154,-34.980306 5.535922,-37.798696 20.256736,-6.84904 20.214638,0.56813 17.969146,32.477065 -4.43892,10.078201 -16.802957,9.867191 -23.505068,5.321631 z"
       sodipodi:nodetypes="cccc" />
    <rect
       style="fill:#282828;fill-opacity:1;stroke:#dcdcdc;stroke-width:1.50000053;stroke-linecap:round;stroke-miterlimit:4;stroke-dasharray:none;stroke-opacity:1"
       id="rect1047-2"
       width="4.5206423"
       height="117.0467"
       x="106.84872"
       y="-103.47784"
       transform="matrix(0.68714449,-0.72652079,0.72570264,0.68800849,0,0)" />
    <path
       id="path905-9-5-7"
       style="fill:#282828;fill-opacity:1;stroke:#dcdcdc;stroke-width:1.5;stroke-linecap:butt;stroke-linejoin:miter;stroke-miterlimit:4;stroke-dasharray:none;stroke-opacity:1"
       d="m 32.976126,-95.737811 c -0.942925,-7.891119 -3.370631,-15.809999 -1.925783,-23.824109 3.492769,-6.96311 11.145025,1.53112 7.510449,6.51754 -1.295614,6.79707 6.091124,18.639013 -2.259997,21.991062 -2.369412,0.03814 -4.24901,-2.414048 -3.324669,-4.684493 z" />
    <path
       style="fill:#282828;fill-opacity:1;stroke:#dcdcdc;stroke-width:1.5;stroke-linecap:round;stroke-miterlimit:4;stroke-dasharray:none;stroke-opacity:1"
       id="path89-0"
       sodipodi:type="arc"
       sodipodi:cx="47.408371"
       sodipodi:cy="-132.9268"
       sodipodi:rx="11.364444"
       sodipodi:ry="11.137665"
       sodipodi:start="4.6021889"
       sodipodi:end="4.5774925"
       sodipodi:open="true"
       sodipodi:arc-type="arc"
       d="m 46.158542,-143.99691 a 11.364444,11.137665 0 0 1 12.537406,9.77689 11.364444,11.137665 0 0 1 -9.898367,12.34735 11.364444,11.137665 0 0 1 -12.659632,-9.62442 11.364444,11.137665 0 0 1 9.742044,-12.4662"
       transform="rotate(5.7147579)" />
    <path
       id="path915-9"
       style="fill:#282828;fill-opacity:1;stroke:#dcdcdc;stroke-width:1.5;stroke-linecap:butt;stroke-linejoin:miter;stroke-miterlimit:4;stroke-dasharray:none;stroke-opacity:1"
       d="m 65.183418,-131.94419 c -2.654509,-2.84901 -9.202822,-4.32809 -12.833604,-3.04066 -5.005334,2.55351 -3.089121,14.77139 -5.916737,18.65308 4.500256,0.25539 12.459603,-1.15929 16.938162,-1.64984 3.29405,-2.86052 -0.317219,-9.95509 1.812179,-13.96258 z"
       sodipodi:nodetypes="ccccc" />
    <path
       id="path966-3"
       style="fill:#282828;fill-opacity:1;stroke:#dcdcdc;stroke-width:1.5;stroke-linecap:butt;stroke-linejoin:miter;stroke-miterlimit:4;stroke-dasharray:none;stroke-opacity:1"
       d="m 52.035092,-130.55901 c 0.287952,-1.70424 9.739998,-0.37301 8.895202,1.52384 -1.819762,0.52941 -8.70417,0.20125 -8.895202,-1.52384 z"
       sodipodi:nodetypes="ccc" />
    <path
       id="path905-6-0-7-7-6"
       style="fill:#282828;fill-opacity:1;stroke:#dcdcdc;stroke-width:1.5;stroke-linecap:butt;stroke-linejoin:miter;stroke-miterlimit:4;stroke-dasharray:none;stroke-opacity:1"
       d="m 85.694479,-93.674265 c -3.80325,-7.545035 -6.320639,-16.029145 -12.290171,-22.211935 -7.14896,-3.99383 -8.875998,8.21614 -2.762578,10.37811 5.12458,5.20065 5.594678,20.201564 14.885638,18.015944 2.100411,-1.4258 2.31004,-4.74767 0.167111,-6.182119 z" />
    <path
       id="path905-9-9-5-0"
       style="fill:#282828;fill-opacity:1;stroke:#dcdcdc;stroke-width:1.5;stroke-linecap:butt;stroke-linejoin:miter;stroke-miterlimit:4;stroke-dasharray:none;stroke-opacity:1"
       d="m 82.908816,-92.733864 c -7.753704,-1.703033 -15.387801,-4.887513 -23.500583,-4.224372 -7.270723,2.804501 0.417455,11.248027 5.73653,8.110937 6.887739,-0.632336 17.931315,7.870843 22.092824,-0.121867 0.272876,-2.356112 -1.979295,-4.465484 -4.328771,-3.764698 z" />
    <path
       style="fill:#282828;fill-opacity:1;stroke:#dcdcdc;stroke-width:1.5;stroke-linecap:butt;stroke-linejoin:miter;stroke-miterlimit:4;stroke-dasharray:none;stroke-opacity:1"
       d="m -8.38055,-158.99176 20.627256,13.07323 -12.367166,-4.54509 4.153019,12.51118 z"
       id="path1085-6" />
  </g>
</svg>
